<?xml version="1.0" standalone="no"?>
<!DOCTYPE svg PUBLIC "-//W3C//DTD SVG 1.1//EN" "http://www.w3.org/Graphics/SVG/1.1/DTD/svg11.dtd" >
<svg xmlns="http://www.w3.org/2000/svg">
<metadata></metadata>
<defs>
<font id="tally_text_bold1" horiz-adv-x="1236" >
<font-face units-per-em="2048" ascent="1638" descent="-410" />
<missing-glyph horiz-adv-x="342" />
<glyph horiz-adv-x="0" />
<glyph unicode="&#xd;" horiz-adv-x="342" />
<glyph unicode=" "  horiz-adv-x="342" />
<glyph unicode="&#x09;" horiz-adv-x="342" />
<glyph unicode="&#xa0;" horiz-adv-x="342" />
<glyph unicode="!" horiz-adv-x="550" d="M51 117q0 131 162 131q59 0 121 -23q82 -28 82 -75q0 -172 -199 -173q-37 0 -139 43q-27 51 -27 97zM162 524q0 94 38 279.5t38 279.5q0 37 -13.5 112t-13.5 112q0 20 4 34q51 43 125 43q43 0 86 -20q49 -27 49 -66q0 -14 -10 -30q-14 -23 -19 -29q-47 -117 -69 -297 q-10 -63 -31 -307q0 -10 -5 -40t-5 -46q0 -53 22 -141q-12 -16 -41 -46q-23 -6 -49 -6q-41 0 -75 21q-31 57 -31 147z" />
<glyph unicode="&#x22;" horiz-adv-x="548" d="M51 1278q0 121 99 121q18 0 65 -43q-12 -74 -12 -299q0 -61 -8 -80q-14 -27 -70 -27q-45 0 -68 45q-6 240 -6 283zM289 1221q0 39 22 96q25 70 56 69q31 0 65 -18q43 -20 43 -45q0 -2 -20.5 -49t-20.5 -90q0 -20 3 -65.5t3 -67.5q0 -100 -80 -101q-43 0 -67 45 q-4 205 -4 226z" />
<glyph unicode="#" horiz-adv-x="1026" d="M51 455q0 61 39 61q-4 0 115 0l31 373q-41 -14 -82 -15q-23 0 -37 46q-12 35 -13 63q0 53 54 88l104 6q6 92 27 275q70 41 106 41q43 0 71 -27t28 -70q0 -18 -31 -116q-2 -31 -12 -93l120 5q10 66 37 272q76 49 97 49q43 0 80.5 -27.5t37.5 -70.5q0 -27 -26 -103 q-31 -92 -35 -110h8q57 0 104 -27q58 -31 58 -84q0 -100 -84 -100q-18 0 -57 14.5t-62 14.5q-18 -127 -53 -381h16q166 2 166 -88q0 -100 -84 -101q-20 0 -59 4t-60 4q-8 -104 -8 -223q0 -10 5 -27.5t5 -25.5q0 -39 -31.5 -66.5t-70.5 -27.5q-49 0 -78 49q-27 43 -26 92 q0 102 20 240h-51q-12 0 -49 -2q-31 -240 -31 -265q0 -123 -107 -122q-29 0 -55 30.5t-26 61.5q0 82 26 252q-31 -10 -43 -11q-37 0 -61 56q-23 47 -23 86zM387 524l107 6l55 400h-68h-57q-10 -135 -37 -406z" />
<glyph unicode="$" horiz-adv-x="1073" d="M51 436q0 41 43 68q37 23 82 22q43 0 84 -32q68 -53 74 -56q47 -25 170 -26q-8 27 -8 133q-121 43 -168 73q-88 59 -88 150q0 102 94 176q41 33 182 107v241q0 47 43 77t92 30q25 0 51 -19q20 -16 43 -32v-43q0 -27 -22 -52q-12 -14 -16 -151q86 16 108 16q49 0 100 -24 q60 -29 60 -72q0 -51 -72 -76q-53 -20 -115 -20q-12 0 -37.5 3t-37.5 3t-21 -2q-10 -84 -20 -252q88 -25 178 -47q104 -41 104 -127q0 -94 -102 -146q-4 -2 -180 -61v-12q0 -76 6 -131q0 -6 5 -30t5 -34q0 -66 -10 -90q-18 -37 -72 -35h-51q-49 145 -53 309q-8 0 -25 -2h-22 q-94 0 -234 41q-170 53 -170 123zM432 778q0 -25 24.5 -39t49.5 -24v159q-47 -35 -51 -38q-23 -23 -23 -58zM664 418l46 4t23 57q0 25 -26 31l-43 8v-100z" />
<glyph unicode="%" horiz-adv-x="1476" d="M51 969q0 162 64 272q78 135 227 135q115 0 195 -100q72 -90 79 -211q74 27 172 92q113 78 134.5 132t31.5 67q20 27 64 26q49 0 90 -30.5t41 -77.5q0 -29 -24.5 -49.5t-69.5 -65.5q-115 -139 -294 -508.5t-226 -556.5q25 -20 24 -45q0 -27 -21.5 -46t-50.5 -19 q-39 0 -94 53q-2 61 -2 80q0 106 144 422q100 215 202 430q-45 -14 -133 -41q-68 -276 -274 -277q-279 0 -279 318zM217 995q0 -207 107 -207q84 0 110 125l4 7q-141 14 -217 108q-4 -18 -4 -33zM319 1167q0 -49 50 -77q41 -27 94 -29q-2 45 -33 100q-33 66 -72 66t-39 -60z M754 307q0 121 63 258q78 162 182 162q33 0 109 -31l10 -24l6 2q111 2 181 -113q57 -98 57 -217q0 -154 -78 -254q-84 -106 -233 -106q-141 0 -222 92q-76 86 -75 231zM920 313q0 -72 28 -125q35 -68 101 -67q70 0 112 80q35 67 35 143q0 94 -31 137q-18 29 -67 50.5 t-68 41.5q-43 -37 -76.5 -118.5t-33.5 -141.5z" />
<glyph unicode="&#x26;" horiz-adv-x="1427" d="M51 238q0 88 86 198q29 39 152 166q-127 238 -127 379q0 180 110.5 291.5t290.5 111.5q131 0 215 -69q88 -76 88 -205q0 -131 -123 -291q-66 -84 -225 -239q29 -45 170 -183q147 -145 176 -145q18 0 103.5 57.5t85.5 67.5q0 51 -133 51q-45 0 -101 -29q-72 29 -71 80 q0 96 126 96q111 0 234 -30q170 -39 170 -113q0 -135 -258 -293q74 -55 133 -55q16 0 50 12.5t52 12.5q60 0 60 -39q0 -51 -62.5 -94.5t-115.5 -43.5q-80 0 -149.5 39t-137.5 76q-244 -96 -428 -96q-154 0 -254 63q-117 76 -117 224zM242 203q0 -100 166 -101q51 0 143 20 t137 40q-154 127 -299 295q-76 -82 -98 -115q-49 -72 -49 -139zM342 987q0 -70 23 -141q25 -88 67 -123q90 68 170 184q90 132 90 226q0 47 -31.5 76.5t-80.5 29.5q-94 0 -166 -79t-72 -173z" />
<glyph unicode="'" horiz-adv-x="296" d="M51 1014v10q0 86 17 205q23 160 63 172q12 4 14 4q29 0 58.5 -18.5t29.5 -45.5q0 -2 -20 -49t-20 -88q0 -29 -7.5 -84t-7.5 -84v-51q-6 -14 -39 -14q-63 0 -88 43z" />
<glyph unicode="(" horiz-adv-x="471" d="M51 707q0 186 55 450q72 352 181 352q51 0 81.5 -44t30.5 -97q0 -16 -21.5 -31.5t-37.5 -15.5q-4 0 -16.5 -17.5t-18.5 -21.5q-63 -100 -63 -426q0 -512 63 -692q2 -8 41 -92q31 -70 31 -82q0 -45 -35 -69.5t-80 -24.5q-68 0 -121 176q-90 291 -90 635z" />
<glyph unicode=")" horiz-adv-x="485" d="M51 1364q0 51 33 86t82 35q29 0 55 -8q98 -106 152 -381q41 -213 41 -422q0 -336 -109 -608q-51 -127 -115 -127q-37 0 -76.5 28.5t-39.5 63.5q0 23 19.5 40t53.5 54q84 121 84 418q0 213 -20 407q-33 285 -98 353q0 2 -37 28q-25 18 -25 33z" />
<glyph unicode="*" horiz-adv-x="571" d="M51 1300q14 53 55 66q18 6 91 4q0 2 -29 43q-25 33 -25 41q0 18 21.5 37.5t38.5 19.5q27 0 57 -65q20 -43 41 -88q154 100 152 100q20 0 31.5 -29.5t11.5 -54.5v-8q-31 -18 -93 -57q2 -2 50 -33q31 -20 30 -47q0 -6 -4 -17.5t-4 -17.5q-6 -8 -22 -8q-53 0 -86 28 q-2 -4 -5 -12q0 -16 39 -65v-23q-41 -20 -49 -20q-23 0 -51 45q-20 35 -41 67q-27 -25 -55 -49q-35 -31 -62 -31q-16 0 -45 15v28q0 10 80 86q-10 18 -61 25.5t-66 19.5z" />
<glyph unicode="+" horiz-adv-x="1220" d="M51 688q0 39 29 71t65 32q37 0 109 -8.5t108 -8.5h113v375q55 29 92 29q35 0 81 -27t46 -57q0 -35 -16 -101.5t-16 -101.5v-117h274q43 0 131 21q49 -27 49 -62q0 -131 -135 -131h-319v-242q0 -39 22 -122q-31 -45 -68 -45q-141 0 -141 126v283h-393q-31 53 -31 86z" />
<glyph unicode="," horiz-adv-x="505" d="M51 -215l6 51q145 113 185 309q43 16 61 17q37 0 78 -33t51 -68q-37 -66 -113 -174q-96 -139 -122 -139q-39 0 -146 37z" />
<glyph unicode="-" horiz-adv-x="681" d="M51 580q0 59 53 59q16 0 48 -8t49 -8q43 0 130 4t130 4q127 -1 141 -58q-12 -4 -12 -14q0 -6 5 -16.5t5 -16.5q0 -23 -70 -22q-14 0 -38.5 5t-38.5 5q-35 0 -106 -2t-107 -2q-188 0 -189 70z" />
<glyph unicode="." horiz-adv-x="391" d="M51 98q0 37 37 64.5t76 27.5q47 0 98 -28q62 -33 62 -74q0 -31 -54.5 -60.5t-89.5 -29.5q-39 0 -84 30.5t-45 69.5z" />
<glyph unicode="/" horiz-adv-x="1019" d="M51 -12q0 27 18.5 51t36.5 47q125 180 248 473q98 248 197 496q31 68 59 133q33 80 45 137q2 20 17.5 59t60.5 65t90 26q46 -1 103 -58q-29 -47 -78 -143l-422 -932q-98 -217 -117 -250q-96 -174 -178 -174q-31 0 -55.5 19.5t-24.5 50.5z" />
<glyph unicode="0" horiz-adv-x="1294" d="M51 602q0 229 127 451q141 246 348 301q74 20 168 20q221 0 367 -221q127 -195 127 -428q0 -283 -148 -500q-168 -248 -436 -248q-256 0 -409 189q-143 176 -144 436zM240 596q0 -188 94 -307q104 -129 289 -129q195 0 299 200q84 160 84 375q0 197 -76 324 q-90 158 -275 158q-59 0 -123 -37q-141 -82 -221 -252q-72 -156 -71 -332z" />
<glyph unicode="1" horiz-adv-x="512" d="M102 967v65q-2 86 43 211q55 150 123 150q39 0 79 -42t40 -81q0 -23 -25 -137q-61 -289 -61 -451v-401q0 -160 16 -181q35 -51 35 -63q0 -29 -23.5 -50.5t-52.5 -21.5q-43 0 -116 35q-25 53 -25 94v848z" />
<glyph unicode="2" horiz-adv-x="1224" d="M51 61q0 51 51 105q18 20 93 78q209 166 372 366q213 266 213 457q0 76 -54 122t-130 46q-84 0 -183.5 -67.5t-123.5 -147.5q-14 -70 -27 -139q-25 -90 -86 -90q-31 0 -75 34.5t-44 63.5q0 121 113 258q102 127 221 184q104 49 221 49q143 0 255 -102t112 -246 q0 -215 -217 -461q-74 -84 -387 -364q-31 -27 -53 -51l671 100q10 2 23 2q47 0 75.5 -40t28.5 -89q0 -29 -20.5 -56.5t-48.5 -27.5q-25 0 -75 12.5t-77 12.5q-324 0 -645 -99q-63 -18 -82 -18q-49 0 -85 29.5t-36 78.5z" />
<glyph unicode="3" horiz-adv-x="1347" d="M51 254q0 35 32 62.5t67 27.5q59 0 88 -55q39 -82 65 -105q68 -55 225 -55q135 0 250 49q127 57 191 162q45 76 45 123q0 98 -119 166q-100 59 -205 59q-29 0 -151.5 -46t-194.5 -46q-39 0 -72 16q-41 18 -41 54q0 43 45.5 90t161.5 53q143 8 176 22q61 25 154 127 q84 96 84 185q0 113 -117 112q-66 0 -186.5 -51t-153.5 -98v-6q0 -2 11 -29q-23 -47 -87 -98q-70 -53 -116 -53q-35 0 -71 25.5t-36 58.5q0 45 56 116q90 117 265 208t318 91q129 0 215 -67q94 -72 94 -199q0 -86 -55 -186q-51 -90 -125 -152q355 -80 355 -340 q0 -135 -86 -242q-197 -248 -541 -247q-154 0 -281 32q-82 20 -164 86q-96 76 -96 150z" />
<glyph unicode="4" horiz-adv-x="1437" d="M51 471q0 74 127 193q96 78 191 157q152 123 438 383q47 55 94 111q55 59 125 59q47 0 85 -32.5t38 -77.5q0 -31 -16 -72l-23 -70q-8 -33 -57 -338q-35 -213 -35 -270q31 8 98 8q178 0 238 -80l2 -75q0 -43 -45 -43q20 0 -90 12q-98 10 -222 18q2 -72 5 -143 q6 -86 34 -139q18 -35 19 -47q0 -25 -31 -72q-35 -18 -68 -19q-33 0 -59 19q-78 0 -78 186q0 27 3 81t3 81q0 8 3.5 22.5t3.5 20.5q-84 -2 -259.5 -25.5t-267.5 -23.5q-70 0 -157 53q-98 59 -99 123zM274 487q0 -18 29 -18l12 2l521 41l51 530q-143 -96 -346 -266 q-266 -223 -267 -289z" />
<glyph unicode="5" horiz-adv-x="1261" d="M51 172q0 84 107 84q61 0 166.5 -76t181.5 -76q172 0 293 86q137 98 137 263q0 111 -84 176q-78 57 -190 57q-70 0 -156 -20q-100 -23 -141 -60q-61 -53 -95 -53q-37 0 -110 41q2 23 14 67t12 68v102q-2 68 -2 101q0 266 72 418q35 18 70 18q55 0 86 -37q8 0 110 12 q193 27 303 27q59 0 107 -24q61 -29 61 -82q0 -37 -45 -113h-43q-18 0 -43 8q-33 12 -39 15q-33 8 -92 8q-63 0 -176 -11q-143 -10 -160 -24q-31 -29 -30 -275q0 -51 2 -86q160 70 323 70q186 0 309 -94q136 -103 136 -285q0 -223 -189 -377q-178 -141 -407 -141 q-96 0 -173 14.5t-186 73.5q-129 70 -129 125z" />
<glyph unicode="6" horiz-adv-x="1253" d="M51 496q0 225 127 446q119 211 311 348q154 111 230 111q43 0 91 -38t48 -81q0 -33 -21.5 -60.5t-52.5 -27.5q-35 0 -57 31q-100 -14 -256 -176q-158 -168 -154 -267v-14q182 156 340 156q209 0 340 -123t131 -330q0 -227 -164.5 -378.5t-396.5 -151.5q-238 0 -381 159 q-135 154 -135 396zM252 428q16 -147 88 -235q82 -102 221 -103q164 0 275 123q108 117 108 283q0 129 -75.5 202.5t-204.5 73.5q-111 0 -219.5 -73.5t-157.5 -176.5q-10 -31 -35 -94z" />
<glyph unicode="7" horiz-adv-x="1101" d="M20 1026q0 23 13 55q16 45 18 54q12 66 23.5 128t50.5 128q68 -2 98 -52q43 2 109 25q82 29 106 35q100 20 224 20q104 0 219 -33q153 -44 153 -120q0 -37 -18 -62q-2 -4 -41 -47q-279 -297 -494 -844q-49 -127 -49 -209q0 -23 35 -131q-18 -53 -64 -53q-63 0 -104 57 q-39 51 -39 117q0 33 19 105q59 236 206 514q6 8 281 479q0 14 -1 28.5t-24 14.5q-86 0 -270 -27q-211 -31 -231 -61q-10 -14 -17 -92q-6 -66 -59 -111q-20 -6 -41 -6q-39 0 -71 24.5t-32 63.5z" />
<glyph unicode="8" horiz-adv-x="1247" d="M51 346q0 217 242 365q-176 121 -176 278q0 180 155 295q139 104 328 105q117 0 225.5 -56.5t175.5 -152.5q23 12 29 12q39 0 62.5 -29.5t23.5 -70.5q0 -104 -127 -203q-66 -51 -219 -127q371 -121 371 -393q0 -150 -103.5 -255.5t-255.5 -133.5q-78 -14 -180 -15 q-215 0 -364 82q-186 102 -187 299zM229 346q0 -123 136 -184q100 -45 241 -45q131 0 225 47q119 61 119 180t-153 199q-74 37 -260 88q-10 4 -35 8q-154 -94 -178 -115q-94 -78 -95 -178zM295 995q0 -63 88 -118q80 -51 145 -52q41 0 183 76q129 70 176 109 q-80 129 -109 157q-66 63 -178 64q-117 0 -205 -57q-100 -68 -100 -179z" />
<glyph unicode="9" horiz-adv-x="1132" d="M51 856q0 236 129 387q135 162 367 162q217 0 346 -166q119 -154 119 -377q0 -266 -138 -510q-63 -109 -169 -223q-137 -145 -224 -145q-43 0 -104 36q-70 41 -70 82q0 31 23.5 53.5t54.5 22.5q33 0 66 -28q68 2 174 153q76 109 125 217q-150 -88 -277 -88 q-193 0 -307.5 117t-114.5 307zM233 838q0 -111 67 -184.5t175 -73.5q57 0 186.5 77.5t151.5 128.5q12 29 12 68q0 147 -63 262q-76 141 -211 141q-139 0 -234 -145q-84 -127 -84 -274z" />
<glyph unicode=":" horiz-adv-x="411" d="M51 106q0 39 37 75t76 36q57 0 108.5 -36t51.5 -93q0 -41 -36 -76t-77 -35q-49 0 -104.5 41t-55.5 88zM51 612q0 57 55 88q45 27 107 27q47 0 88 -33t41 -78q0 -53 -45 -84.5t-100 -31.5q-49 0 -95 30q-51 35 -51 82z" />
<glyph unicode=";" horiz-adv-x="522" d="M51 -203q78 115 113 174q72 119 86 179q43 29 80 28q49 0 84 -27.5t35 -74.5q-72 -106 -144 -211q-119 -162 -166 -162q-33 0 -59 33q-23 27 -29 61zM139 623q0 104 119 104q55 0 102 -25q56 -28 56 -79q0 -53 -49.5 -85t-106.5 -32q-121 0 -121 117z" />
<glyph unicode="&#x3c;" horiz-adv-x="874" d="M51 692q0 39 43 64l545 319q125 -37 125 -114q0 -41 -436 -259q143 -72 432 -219q26 -49 26 -69q0 -29 -40.5 -58.5t-71.5 -29.5q-20 0 -292.5 145t-301.5 171t-29 50z" />
<glyph unicode="=" horiz-adv-x="948" d="M51 451q0 -8 10 69q53 12 66 12q18 0 55 -4t56 -4q43 0 131 6.5t133 6.5q23 0 66.5 -3.5t64.5 -3.5q25 0 73 13.5t72 13.5q23 0 50.5 -32.5t27.5 -57.5v-76q-623 -27 -643 -26q-162 0 -162 86zM51 748v75q629 27 637 27q53 0 107 -25q61 -30 61 -77q0 -14 -4 -35 q-4 -27 -4 -35q-53 -12 -68 -12q-12 0 -59 18q-39 16 -291 16q-115 0 -227 -34l-23 -7q-27 -8 -37 -8q-31 0 -61.5 33t-30.5 64z" />
<glyph unicode="&#x3e;" horiz-adv-x="874" d="M51 983q0 29 41 58.5t72 29.5q20 0 290.5 -144.5t301 -169.5t30.5 -52q0 -37 -43 -62q-152 -90 -301 -180q-256 -150 -280 -150q-37 0 -64.5 33t-27.5 70q0 12 2 20q20 51 438 258q-145 72 -432 219q-27 51 -27 70z" />
<glyph unicode="?" horiz-adv-x="1189" d="M51 979q0 82 139 197q119 98 218 133q143 53 225 53q141 0 291 -100q163 -113 163 -246q0 -135 -159 -256q-49 -39 -295 -176q-160 -90 -160 -150q0 -16 22.5 -55t20.5 -74v-14q-25 -6 -51 -6q-63 0 -127 49q-70 53 -70 115q0 106 158 204q143 82 289 162q156 98 155 201 q0 78 -63 125q-57 41 -139 41q-76 0 -204 -61.5t-185 -123.5q78 -18 77 -67q0 -39 -44 -72t-85 -33q-53 0 -114.5 51.5t-61.5 102.5zM279 98q0 37 36.5 64.5t75.5 27.5q47 0 103.5 -30.5t56.5 -71.5q0 -31 -57 -61q-49 -29 -86 -29q-39 0 -84 30.5t-45 69.5z" />
<glyph unicode="@" horiz-adv-x="1804" d="M51 559q0 391 252 646t641 255q307 0 514 -172q217 -182 217 -483q0 -231 -116 -418q-135 -213 -355 -213q-145 0 -213 148q-121 -150 -266 -150q-133 0 -217 107q-78 98 -78 235q0 186 117 365q131 199 307 198q145 0 236 -108q14 96 141 96q66 0 65 -33q0 -14 -36 -133 q-45 -145 -46 -147q-66 -242 -65 -303q0 -111 123 -111q117 0 188 180q55 141 56 281q0 248 -173 389q-158 131 -411 131q-311 0 -508 -221q-190 -213 -191 -527q0 -305 183.5 -490t486.5 -185q240 0 545 180q10 4 25 4q76 0 75 -53q0 -33 -32 -62q-16 -12 -91 -57 q-281 -166 -563 -166q-96 0 -250 51q-262 88 -411.5 291t-149.5 475zM637 471q0 -135 158 -135q90 0 159 186q60 156 60 269q0 123 -80 122q-143 0 -227 -155q-70 -129 -70 -287z" />
<glyph unicode="A" d="M51 82q0 14 37 115q41 145 133 436q274 751 457 751q178 0 274 -397q43 -178 80 -547q53 -12 68 -20q33 -19 33 -58q0 -98 -89 -100q10 -47 46 -127q-2 -45 -37 -73.5t-82 -28.5q-37 0 -86 22q-27 53 -27 127q0 18 2 53t2 52q0 -14 -67 -15q-115 0 -273 -10 q-225 -12 -244.5 -34.5t-25.5 -219.5q-27 -39 -68 -39q-43 0 -88 36t-45 77zM322 399q66 14 194 35q74 9 188 9q65 0 142 -3q-90 715 -162 715q-57 0 -201 -336q-102 -242 -161 -420z" />
<glyph unicode="B" horiz-adv-x="1165" d="M51 178q0 63 62 72v4q0 39 2 121q2 76 2 123v14q-43 27 -43 61q0 39 39 68v627q0 33 35.5 66.5t68.5 33.5q45 0 62 -12q20 -23 40 -45l-16 -92q141 190 359 190q172 0 270 -125q90 -113 90 -289q0 -100 -43 -202q-43 -109 -115 -172q201 -64 201 -240q0 -68 -33 -125 q-147 -252 -508 -252q-94 0 -217 27q-23 -63 -76 -64q-98 0 -98 82v14.5v14.5q0 18 -6 22q-27 12 -51.5 26.5t-24.5 51.5zM297 276q0 -43 2 -73q100 -41 221 -41q111 0 225 61q134 70 134 170q0 80 -199 105q-82 8 -270 8q-68 0 -111 -4q-2 -53 -2 -99v-127zM305 655h111 q215 0 307 64q113 80 113 285q0 251 -182 251h-1q-131 0 -243 -174q-104 -158 -105 -295v-131z" />
<glyph unicode="C" horiz-adv-x="1150" d="M51 578q0 217 68 407q76 217 223 340q117 96 238 96q174 0 264 -151q74 -123 74 -309q0 -84 -44 -211q-51 -156 -114 -156q-72 0 -109 90q20 14 58 47q41 45 41 176q0 127 -27 215q-41 133 -135 133q-66 0 -144 -84q-59 -63 -100 -141q-100 -197 -100 -489 q0 -426 319 -426q137 0 217 78q33 35 97 145q43 80 92 80q33 0 57.5 -25.5t24.5 -56.5q0 -39 -21 -94q-51 -135 -192 -213q-129 -70 -283 -70q-252 0 -387 191q-117 166 -117 428z" />
<glyph unicode="D" horiz-adv-x="1138" d="M51 299q0 164 9.5 491.5t9.5 491.5q0 4 -2 14.5t-2 16.5q0 37 26.5 59.5t63.5 22.5q51 0 91 -37q31 -29 31 -65q0 -10 -2 -21q103 153 295 153h2q233 0 359 -176q106 -155 106 -399q0 -322 -147 -580q-176 -307 -473 -307q-106 0 -185 43q-43 -39 -83 -39q-25 0 -58 27 q-41 115 -41 305zM242 305q0 -192 159 -192h2q145 0 265 149q98 127 135 289q33 145 33 307q0 418 -246 418q-100 0 -199 -102q-86 -90 -117.5 -196t-31.5 -233v-440z" />
<glyph unicode="E" horiz-adv-x="1101" d="M51 457q0 393 21 622q2 31 2 33q0 14 -4 42t-4 40q0 94 102 111q158 29 315 59q207 39 310 39q59 0 104 -21q61 -29 61 -79q0 -76 -100 -76q-12 0 -37.5 3t-38.5 3q-166 0 -452 -74q-16 -2 -30.5 -6t-20.5 -31q-23 -98 -23 -385q0 -43 39 -43q53 0 153.5 27t153.5 27 q59 0 137 -37q20 -66 21 -80q0 -51 -31 -55.5t-65 -8.5q-16 10 -46 11q-72 0 -172 -19q-84 -18 -170 -35q-12 -2 -21 -4t-13 -24q-4 -37 -4 -60q0 -158 6 -188q20 -119 112 -119q78 0 227.5 48t237.5 48h4q136 0 176 -71q0 -35 -14 -62q-18 -35 -49 -35q-8 0 -23.5 3 t-23.5 3q-88 0 -255 -53t-255 -53q-330 0 -330 500z" />
<glyph unicode="F" horiz-adv-x="1024" d="M51 1221q0 33 39 49q6 4 66 20q-2 18 -2 29q0 70 69 70q39 0 121 -64q324 55 449 55q59 0 106 -20q59 -27 59 -78q0 -74 -98 -74q-12 0 -37.5 3t-38.5 3q-82 0 -209 -30q-166 -41 -206 -47q-14 -100 -29 -199q-16 -121 -16 -201q0 -63 29 -63h3l15 2q166 14 229 14 q145 0 209 -90q0 -86 -64 -86q-12 0 -35.5 6t-35.5 6q-27 0 -76 2h-76q-109 0 -172 -12q-33 -8 -39 -19.5t-9 -51t-3 -78.5q0 -240 16 -261q31 -45 31 -59q0 -29 -33.5 -56.5t-62.5 -27.5q-72 0 -94 43q-43 78 -43 301q0 123 23.5 367t23.5 366q0 90 -15 90q-4 0 -13 -2 t-13 -2q-25 0 -46.5 33t-21.5 62z" />
<glyph unicode="G" horiz-adv-x="1128" d="M51 604q0 283 121 512q145 281 401 281q127 0 222 -60q104 -68 129 -184q20 -96 20 -92q0 -270 -123 -270q-37 0 -67.5 24.5t-30.5 61.5q0 20 21.5 59t21.5 61q0 117 -29 160q-37 59 -145 60q-111 0 -205 -138q-78 -115 -102 -239q-25 -133 -25 -246q0 -193 31 -279 q49 -139 198 -182q45 -12 74 -12q74 0 156 61q72 57 110 129q23 43 27 109l-8 6q-145 0 -225 -35q-25 -12 -50 -26q-33 -14 -51 -15q-51 0 -79.5 43t-28.5 96q0 45 47 74q31 16 192 39q147 18 207 19q168 0 168 -207q0 -178 -155.5 -317.5t-335.5 -139.5q-260 0 -385 203 q-100 166 -101 444z" />
<glyph unicode="H" horiz-adv-x="1294" d="M51 578q0 25 26.5 34t51.5 17q2 27 8 96q6 59 6 94q0 360 39 459q33 80 113 80q49 0 92 -32t43 -79q0 -25 -16 -61q-23 -49 -25 -58q-55 -172 -55 -409v-47q18 2 96 16q242 49 455 49q6 301 16 389q35 295 141 295q63 0 104.5 -48t41.5 -111q0 -18 -29 -41t-33 -33 q-49 -93 -49 -355v-40l2 -80q6 2 15 2q31 0 58.5 -35t27.5 -68q0 -25 -39 -34q-31 -6 -62 -13q2 -96 4 -194q4 -125 27 -187q16 -51 16 -67q0 -41 -30.5 -75t-71.5 -34q-78 0 -102 82q-4 16 -19 143q-4 45 -4 109v84q-2 84 -10 137q-119 -4 -283 -35q-141 -27 -280 -53 q8 -27 8 -221q0 -156 47 -205q6 -10 6 -20q0 -53 -82 -54q-76 0 -119 48q-27 29 -51 426q-39 8 -61.5 47t-22.5 82z" />
<glyph unicode="I" horiz-adv-x="415" d="M72 731q0 84 3 253t3 255q0 47 49 90t96 43q37 0 80 -30.5t43 -65.5q0 -10 -18 -45q-8 -16 -17 -92q-43 -459 -43 -805q0 -90 17 -146q14 -47 59 -129q2 -4 2 -12q0 -43 -100 -43h-19q-104 2 -127 168q-28 196 -28 535v24z" />
<glyph unicode="J" horiz-adv-x="1120" d="M20 453q0 53 25 118q31 80 74 80q68 0 102 -63q31 -51 31 -123q0 -23 -2 -67t-2 -64q0 -57 54 -118.5t112 -61.5q209 0 209 559q0 98 -17 417q-25 -6 -129 -59q-94 -49 -115 -49q-41 0 -67.5 35t-26.5 76q0 68 142 114q102 31 202 62q20 77 91 77h2q20 0 77 -34 q16 2 50 10t53 8q47 0 92 -28.5t45 -73.5q0 -72 -82 -72q-18 0 -52 4t-52 4q-27 0 -27 -20q0 -29 3 -88.5t3 -89.5q0 -1030 -389 -1031q-156 0 -285 164q-121 154 -121 314z" />
<glyph unicode="K" horiz-adv-x="1230" d="M51 803q0 373 27 518q16 86 94 86q49 0 110.5 -39t61.5 -84q0 -31 -18.5 -41t-32.5 -18q-14 -16 -33 -285q-12 -209 -16 -319q550 755 692 755q23 0 51 -12q23 -29 43 -59q27 -37 27 -66q0 -27 -19.5 -46t-46.5 -19q-16 0 -43 12l-6 6q-49 -6 -199.5 -186.5 t-150.5 -235.5q0 -119 137 -340q142 -235 251 -235h1q14 0 54 17t67 17h2q74 0 74 -65q0 -55 -68 -88q-55 -25 -117 -25q-285 0 -573 533q-172 -199 -172 -271q0 -188 47 -268l6 -57q-45 -51 -90 -51q-68 0 -114 107.5t-46 758.5z" />
<glyph unicode="L" horiz-adv-x="940" d="M51 420q0 121 19.5 358.5t19.5 358.5q0 23 -4 71.5t-4 73.5t4 55q41 49 100 49q57 0 88 -73q25 -57 25 -123q0 -139 -26.5 -413.5t-26.5 -411.5q0 -242 137 -242q61 0 176 42t176 42q57 0 88 -51q25 -42 25 -103q-221 -80 -467 -80q-193 0 -270 136q-59 104 -60 311z" />
<glyph unicode="M" horiz-adv-x="1431" d="M51 352q0 145 16.5 434t16.5 433q0 16 -16.5 34.5t-16.5 34.5q0 115 205 115q47 0 113 -60q6 -63 20 -192q20 -180 96 -477q100 -383 174 -383q16 0 43 63q51 123 101 346q37 178 74 357q16 84 59 241q43 117 180 117q49 0 119 -22q84 -29 84 -68q0 -29 -19 -47 q-31 -35 -32 -37q-12 -20 -25 -106q-51 -418 -51 -826q0 -229 82 -258v-55q-25 -51 -76 -51q-104 0 -158 182q-39 129 -39 270q0 309 17 516q-61 -240 -125 -481q-115 -373 -221 -373q-121 0 -213 220q-86 199 -211 667q-12 -139 -12 -284q0 -301 16 -437q2 -25 23.5 -79 t21.5 -85q0 -67 -110 -67h-3q-133 0 -133 358z" />
<glyph unicode="N" horiz-adv-x="1136" d="M51 295q0 35 2 103.5t2 103.5q0 84 20.5 250t20.5 249v250q0 4 -3 12.5t-3 12.5q0 41 55 67q45 23 91 23q104 0 149 -68q12 -23 23 -94q6 -49 12 -100q25 -145 129 -467q125 -379 186 -379q23 0 23 57q0 16 -5 53.5t-5 57.5l20 555q6 125 43 246q53 170 143 170 q29 0 80 -37q2 -11 2 -19q0 -23 -18 -57q-23 -45 -27 -55q-59 -186 -59 -305l-6 -588q-2 -90 -41 -184q-51 -119 -127 -119q-113 0 -223 188q-80 139 -162 385q-47 160 -97 320q-43 -348 -43 -467q0 -262 32 -301t32 -58q0 -39 -41 -68.5t-82 -29.5q-57 0 -94 121 q-29 94 -29 172z" />
<glyph unicode="O" horiz-adv-x="1288" d="M51 594q0 303 146 534q168 272 454 273q252 0 402 -236q129 -203 129 -471q0 -295 -146 -499q-162 -231 -444 -232q-80 0 -172 31q-205 66 -293 227q-76 139 -76 373zM233 537q0 -39 17 -109q35 -158 104 -227q80 -82 234 -82q209 0 315 203q82 160 82 391 q0 426 -274 510q-29 8 -66 8q-115 0 -229 -103q-182 -166 -183 -591z" />
<glyph unicode="P" horiz-adv-x="1138" d="M51 346q0 35 9.5 104.5t9.5 106.5v139v22q0 59 8 159q10 120 10 178v184q0 4 -20 111q53 49 100 49q55 0 88 -40t33 -97q0 -14 -2 -29q135 178 342 178q195 0 307 -145q100 -131 100 -332v-43q2 -29 2 -43q0 -45 -6 -80q-80 -473 -448 -473q-188 0 -338 96v-43v-19 q0 -122 24 -169q39 -72 39 -82q0 -41 -31.5 -72t-72.5 -31q-92 0 -125 66q-18 39 -25 145q-4 70 -4 160zM258 727q0 -285 287 -285q154 0 225 133q41 74 78 269q6 39 6 37q0 141 -43 241q-59 135 -182 135q-158 0 -271 -192q-100 -168 -100 -338z" />
<glyph unicode="Q" horiz-adv-x="1286" d="M51 612q0 305 139 531q164 264 451 264q252 0 406 -233q133 -206 133 -472q0 -393 -224 -598q129 -176 170 -290q-18 -86 -90 -86q-51 0 -131 147.5t-96 147.5q-8 0 -53 -16.5t-51 -16.5q-37 -10 -105 -10q-279 0 -420 182q-129 166 -129 450zM233 592q0 -203 80 -326 q96 -143 289 -143q37 0 84 12q-63 39 -125 78q-86 55 -86 100q0 41 39 68q32 22 72 22h4q63 0 258 -167q143 158 143 469q0 195 -69 335q-90 182 -267 183q-152 0 -276 -156q-111 -139 -135 -299q-10 -78 -11 -176z" />
<glyph unicode="R" horiz-adv-x="1304" d="M51 537q0 76 137 108q8 63 15 174q4 125 10 174q12 66 31 197h-17h-4q-78 0 -78 72q0 63 50 79q35 10 69 21q41 37 64.5 48t74.5 11q37 0 37 -32q0 -10 52 -11q240 0 407 -96q207 -117 207 -338q0 -170 -107 -280q-72 -76 -254 -170q145 -92 289 -185q166 -124 164 -274 v-10q-31 -45 -76 -45q-35 0 -59 30q-18 74 -271 240t-335 166h-37q-29 -2 -39 -2v-80q0 -41 10 -109q10 -82 23 -100q37 -49 37 -62q0 -37 -29 -60t-66 -23q-78 0 -120 55q-41 49 -41 405q-43 0 -91 27q-53 33 -53 70zM377 629q119 -41 147 -41q25 0 72 14q135 41 221 125 q101 96 101 225q0 131 -134 199q-106 55 -249 55q-18 0 -89 -6v-7q0 -75 -38 -247q-23 -109 -31 -317z" />
<glyph unicode="S" horiz-adv-x="1036" d="M51 182q0 37 26.5 63.5t63.5 26.5q55 0 103 -45q80 -68 86 -73q72 -41 258 -41q166 0 166 75q0 63 -156 177q-109 70 -217 139q-139 94 -203 178q-84 111 -84 254q0 180 111 321q119 156 295 156q152 0 256 -83t133 -232q6 -57 24 -170q8 -33 9 -49q0 -74 -25 -125 q-31 -70 -96 -70q-37 0 -71 34t-34 70q0 27 12.5 79.5t12.5 78.5q0 276 -184 277q-102 0 -172 -87t-70 -192q0 -147 176 -287q162 -109 326 -217q174 -124 174 -239q0 -125 -146 -193q-115 -55 -256 -55q-129 0 -303 57q-215 74 -215 172z" />
<glyph unicode="T" horiz-adv-x="1071" d="M20 1233q0 35 21 41q31 45 321 78q216 24 354 24h11q98 0 172 -24q107 -35 107 -107q0 -35 -21.5 -60.5t-54.5 -25.5q-18 0 -68.5 17.5t-83.5 17.5h-141q-31 0 -34 -5t-7 -40q-8 -51 -25 -154q-39 -279 -39 -628q0 -238 56 -326v-55q-39 -20 -62 -21q-131 0 -170 127 q-18 61 -18 236q0 203 8 315q2 49 23 236q16 145 16 235l-2 60q-29 -2 -111 -15q-68 -10 -110 -10q-141 0 -142 84z" />
<glyph unicode="U" horiz-adv-x="1028" d="M51 600q0 94 12.5 283.5t12.5 283.5q0 16 -12.5 48t-12.5 49q0 51 82 84q61 26 121 26h4q70 0 70 -43q0 -23 -20.5 -65.5t-20.5 -67.5q0 -82 -20.5 -248t-20.5 -250v-254q0 -117 45 -206q55 -115 162 -115q205 0 272 377q31 176 31 547q0 135 -41 219q-12 25 -13 39 q0 37 28 71.5t65 34.5q39 0 83 -28.5t44 -65.5v-567q0 -170 -41 -361q-49 -236 -136 -325q-106 -113 -262 -113q-139 0 -243 84q-115 94 -158 256q-31 115 -31 307z" />
<glyph unicode="V" horiz-adv-x="1120" d="M51 1274q0 41 51 74q44 30 88 30h3q51 0 92 -37.5t41 -89.5q0 -37 -5.5 -112.5t-5.5 -112.5q0 -168 52 -403q94 -438 153 -439q39 0 76 64q96 162 174 491q76 315 76 521q0 47 -30 70.5t-30 27.5q0 23 51.5 59.5t75.5 36.5q43 0 76 -58.5t33 -105.5q0 -168 -53 -450 q-39 -199 -146 -488q-141 -377 -243 -377t-160 31q-125 68 -217 529q-51 311 -105 622q-4 23 -18 64q-10 10 -19.5 22t-9.5 31z" />
<glyph unicode="W" horiz-adv-x="1390" d="M72 1214q0 158 135 158q121 0 121 -55q0 -25 -15.5 -52.5t-29.5 -54.5q-27 -53 -27 -223q0 -784 121 -784q43 0 104 305q74 360 74 553q0 29 39 58.5t70 29.5q61 0 111 -43t56 -105q-40 -58 -40 -211v-8q0 -575 108 -575q104 0 162 328q39 227 39 417q0 80 -9.5 119 t-46.5 117q-33 66 -32 98q0 49 22 90q29 51 74 51q63 0 113 -217q36 -169 36 -278q0 -233 -81 -529q-109 -387 -273 -387q-143 0 -209 183q-37 102 -55 303q-49 -231 -78 -309q-76 -211 -184 -211q-80 0 -146 67q-86 88 -129 553q-30 307 -30 594v18z" />
<glyph unicode="X" horiz-adv-x="1085" d="M-31 33q0 49 99 157q31 33 191.5 274t160.5 255q0 18 -180.5 264t-180.5 303q0 47 32 76t81 29q96 0 166 -99q47 -61 105.5 -208.5t86.5 -188.5q156 225 238 385q70 135 150 135q41 0 67.5 -32.5t30.5 -75.5l-383 -584q78 -135 194 -305q166 -242 213 -242q12 0 33 3 t31 3q49 0 49 -63q0 -43 -38 -69.5t-83 -26.5q-160 0 -512 538q-16 -29 -49 -86q-59 -98 -178 -301q-25 -51 -76 -151q-33 -57 -94 -58q-154 0 -154 68z" />
<glyph unicode="Y" horiz-adv-x="1095" d="M51 1276q0 119 107 119q123 0 123 -142q0 -14 -5.5 -43.5t-5.5 -46.5q0 -86 80 -270q84 -195 152 -223q27 39 116 235q98 217 154 312q91 153 153 153h1q45 0 81 -27.5t42 -70.5q-23 -39 -79.5 -103.5t-76 -99.5t-246.5 -633q-193 -510 -256 -510q-55 0 -96 31 q-47 33 -47 86q0 33 37 82t82 174q33 94 65 188q-123 98 -217 301q-164 346 -164 488z" />
<glyph unicode="Z" horiz-adv-x="1298" d="M51 190q0 152 254 385q238 193 475 386q254 211 254 313q0 43 -76 43q-133 0 -297.5 -44t-281.5 -110q-53 -33 -107 -65q-82 -49 -104 -49q-92 0 -92 135q0 37 26 57q8 6 60 31q461 215 778 215q109 0 178 -55q39 -31 71 -88.5t32 -104.5q0 -119 -252 -342 q-233 -195 -467 -389q-252 -219 -252 -322q0 -41 94 -41t279.5 22.5t279.5 22.5q68 0 135 -32q80 -39 92 -99q-33 -59 -88 -59q-14 0 -43.5 10t-46.5 10h-12q-51 -4 -283 -24q-174 -16 -284 -16q-156 0 -221 28q-100 45 -101 182z" />
<glyph unicode="[" horiz-adv-x="544" d="M51 1327q0 37 43 64q37 23 74 22q8 0 22.5 -4t20.5 -4h211q31 0 31 -66q0 -70 -13.5 -79t-85.5 -9q-59 0 -71 -43q-33 -121 -33 -307v-440q0 -354 29 -512q8 -41 38 -41q23 0 67 10t69 10q18 0 18 -37q0 -66 -33 -124q-213 -27 -209 -27q-6 0 -16 2h-14q-131 0 -131 330 q0 193 4 577.5t4 577.5q0 18 -12.5 51t-12.5 49z" />
<glyph unicode="\" horiz-adv-x="970" d="M51 1346q0 27 37 47t68 20q43 0 88 -25.5t63 -62.5q8 -37 23 -108q10 -47 59 -162q96 -236 193 -471q119 -272 239 -449q18 -23 37 -47t19 -51q0 -31 -24 -50.5t-54 -19.5q-84 0 -174 150q-39 66 -111 225l-383 870q-6 12 -45 68q-35 49 -35 66z" />
<glyph unicode="]" horiz-adv-x="544" d="M51 -109q0 37 19 37q23 0 67.5 -10t67.5 -10q31 0 39 41q29 158 28 493v471q0 152 -8 201q-20 137 -96 137q-12 0 -35 -2h-33q-31 0 -30 90q0 66 30 66h209q8 0 22.5 4t20.5 4q39 0 79 -24.5t40 -61.5q0 -16 -12.5 -49t-12.5 -51q0 -193 4.5 -578t4.5 -577 q0 -330 -131 -330h-17q-10 -2 -14 -2q2 0 -209 27q-33 59 -33 124z" />
<glyph unicode="^" horiz-adv-x="722" d="M51 1520l2 12q43 41 142 106q113 76 151 76q41 0 289 -170q6 -16 6 -24q0 -12 -25.5 -37t-40.5 -25q-41 0 -98 37q-70 45 -94 53q-12 2 -37 11q-25 -8 -74 -31q-113 -70 -155 -70q-14 0 -40 24.5t-26 37.5z" />
<glyph unicode="_" horiz-adv-x="944" d="M-10 -193h971v-71h-971v71z" />
<glyph unicode="`" horiz-adv-x="460" d="M51 1599q4 29 31 60t53 31q45 0 135 -82q68 -61 117 -125q4 -11 4 -19q0 -37 -35 -37q-55 0 -157 86q-35 29 -72 41q-47 14 -70 29z" />
<glyph unicode="a" horiz-adv-x="876" d="M51 193q0 96 131 180q119 76 224 76h174v49v7q0 208 -127 208q-162 0 -162 -152q0 -51 -58 -51q-35 0 -72.5 31.5t-37.5 66.5q0 115 82 188.5t196 73.5q385 0 385 -522q0 -264 -16 -373q-10 -63 -86 -63q-103 0 -103 93q0 10 1 22q-102 -49 -213 -50q-106 0 -203 54 q-115 63 -115 162zM262 195q0 -66 113 -66q70 0 131 39q74 43 74 106q0 41 -62 41q-256 0 -256 -120z" />
<glyph unicode="b" horiz-adv-x="839" d="M61 240v8l31 1157q29 44 66 44q6 0 12 -1q10 4 20 4q37 0 69 -44t32 -83q0 -88 -17 -235q-20 -170 -22 -234q59 72 154 72q113 0 202.5 -81t116.5 -196q16 -69 16 -186q0 -184 -63 -313q-82 -166 -248 -166q-53 0 -168 39q2 -14 2 -27q0 -68 -76 -68q-55 0 -90 41 q-16 18 -26 127q-10 90 -11 142zM246 389q0 -258 155 -258q150 0 150 348q0 279 -117 279q-98 0 -149 -142q-39 -106 -39 -227z" />
<glyph unicode="c" horiz-adv-x="821" d="M31 328q0 158 84 352q100 233 233 233q74 0 178 -57q111 -63 129 -127q16 -55 17 -125q0 -63 -27 -143q-33 -102 -82 -103q-35 0 -65 21q-37 23 -37 55q0 2 18 47q10 20 10 113q0 76 -6 98q-12 63 -57 64q-100 0 -156 -174q-41 -129 -41 -260q0 -219 140 -220 q55 0 127 58q66 53 92 108q33 66 80 66q31 0 59.5 -36t28.5 -67q0 -63 -97 -149q-86 -80 -154.5 -100.5t-129.5 -20.5q-162 0 -253 102.5t-91 264.5z" />
<glyph unicode="d" horiz-adv-x="827" d="M31 326q0 180 73 366q94 236 246 236q90 0 185 -80q10 96 10 491q0 37 55 37q66 0 114 -32.5t48 -98.5q0 -45 -12 -117q-16 -96 -21 -114q-6 -63 -19.5 -374.5t-13.5 -344.5q0 -197 43 -295q-35 -57 -80 -57q-47 0 -83.5 35.5t-40.5 82.5q-96 -88 -197 -88 q-150 0 -232 105q-76 94 -75 248zM213 307q0 -190 111 -190q115 0 165 170q35 114 35 264q0 70 -30 127q-39 70 -103 70q-92 0 -141 -183q-37 -131 -37 -258z" />
<glyph unicode="e" horiz-adv-x="778" d="M31 334q0 147 71 328q88 221 213 221q113 0 243 -100.5t130 -209.5q0 -135 -121 -215q-105 -71 -250 -71h-4q-29 0 -92 35q8 -195 115 -195q90 0 177 51t112 51q88 0 88 -49q0 -102 -140 -160q-109 -45 -227 -45q-315 0 -315 359zM272.5 466.5q26.5 -24.5 67.5 -24.5 q149 0 149 125q0 51 -29.5 97.5t-78.5 46.5q-68 0 -105 -60q-30 -49 -30 -117q0 -43 26.5 -67.5z" />
<glyph unicode="f" horiz-adv-x="655" d="M10 614q0 63 53 82q29 8 107 9q6 20 6 124q0 211 68 367q92 205 276 205q92 0 152 -41q65 -49 65 -135q0 -35 -33.5 -57.5t-68.5 -22.5q-27 0 -57 24q-2 41 -16.5 52.5t-59.5 11.5q-88 0 -127 -221q-20 -127 -23 -293h25q18 2 26 2q86 0 123 -68l-18 -78 q-39 -20 -135 -20q-16 0 -27 -2q-6 -68 -6 -147v-187q0 -109 33 -223q-80 -45 -117 -45q-49 0 -78 76q-24 57 -24 113q0 40 8 399q-68 -6 -64 -7q-35 0 -61.5 23t-26.5 59z" />
<glyph unicode="g" horiz-adv-x="833" d="M41 -307q0 90 84 90q39 0 53 -23q27 -41 36 -49t66.5 -19t79.5 -11q184 0 185 231q0 68 -6 115q-88 -76 -211 -76q-51 0 -114.5 28.5t-96.5 67.5q-63 74 -64 219q0 174 80 383q98 256 240 256q86 0 164 -80q57 -76 114 -149q16 -20 51 -37q44 -21 56 -31q-4 -51 -27 -180 q-20 -113 -20 -180q0 -61 6 -184t6 -185q0 -127 -25 -188q-29 -78 -108.5 -126t-165.5 -48q-90 0 -223 49q-160 57 -160 127zM246 283q0 -201 104 -201q98 0 156 160q45 122 45 243q0 31 -29 52q-12 188 -131 188q-68 0 -112 -190q-33 -145 -33 -252z" />
<glyph unicode="h" horiz-adv-x="763" d="M51 109l12 1183q0 6 -2 16.5t-2 14.5q0 74 82 74q39 0 90.5 -36t51.5 -73q0 -45 -19.5 -133t-19.5 -133q0 -57 4 -182q43 26 74 26h2q80 0 174 -39q121 -51 168 -165q34 -84 34 -230v-8v-457q-39 -39 -102 -39q-43 0 -88 54q2 180 2 278q0 455 -133 455q-137 0 -137 -367 q0 -20 2 -59v-60q0 -31 10 -93t10 -93q0 -27 -31.5 -48.5t-58.5 -21.5q-51 0 -87 42t-36 94z" />
<glyph unicode="i" horiz-adv-x="333" d="M31 477q0 203 16 340q-2 10 -2 21q0 36 54 36h3q51 0 103 -20q65 -23 65 -66q0 -37 -16 -104.5t-16 -103.5v-422q0 -39 22 -123q-31 -47 -67 -47q-129 0 -142 129q-20 240 -20 360zM37 1100q0 45 31.5 73.5t78.5 28.5q55 0 98.5 -36t43.5 -91q0 -45 -31 -73.5t-76 -28.5 q-53 0 -99 37t-46 90z" />
<glyph unicode="j" horiz-adv-x="442" d="M-336 -369q0 74 84 74q23 0 47 -10q86 -102 207 -103q172 0 172 314q0 10 -14 872l33 39q70 18 96 19q47 -1 96 -50q-45 -125 -45 -192q0 -131 6 -396.5t6 -398.5q0 -150 -78 -258q-86 -121 -229 -121q-76 0 -221 72q-160 76 -160 139zM141 1006q0 98 103 98 q57 0 102 -37t45 -92q0 -45 -38 -75t-83 -30q-23 0 -67 37q-37 31 -58 56q-4 20 -4 43z" />
<glyph unicode="k" horiz-adv-x="858" d="M41 1319q0 39 47 70q40 28 79 28h3q31 0 66.5 -23.5t35.5 -52.5q0 -8 -12 -57t-12 -151q0 -33 -6 -547q8 8 221 202q176 164 207 164q104 0 104 -122v-11v-20q-88 -51 -227 -162q-176 -137 -176 -182q0 -4 110 -129q104 -119 131 -148q123 -129 230 -176v-65 q-78 -57 -123 -58q-59 0 -172 123q-80 86 -158 174q-45 53 -143 150l-6 -4v-181q0 -16 13 -48t13 -50q0 -29 -29.5 -50.5t-60.5 -21.5q-53 0 -88 35t-35 88v271q0 25 7.5 74.5t7.5 74.5v551q0 125 -19 201q-8 35 -8 53z" />
<glyph unicode="l" horiz-adv-x="329" d="M41 1368q68 45 106 45q45 0 86 -29.5t41 -74.5q0 -23 -10 -54q-14 -49 -16 -53q-27 -127 -27 -360v-381q6 -258 43 -361q10 -29 10 -45q0 -37 -29.5 -62.5t-68.5 -25.5q-129 0 -129 338q0 154 3 461t3 461q0 25 -6 72t-6 69z" />
<glyph unicode="m" horiz-adv-x="1173" d="M51 219v447q0 49 25 131q31 98 65 98q41 0 74 -32q29 -29 29 -63v-9q59 98 153 98q117 0 191 -156q39 92 69 127q51 59 127 60q76 0 154 -80q135 -137 135 -469v-367q-70 -43 -106 -43q-27 0 -82 29q0 33 2 112q2 72 2 113q0 545 -90 545q-68 0 -109 -166 q-31 -121 -31 -223v-189q0 -14 9.5 -41.5t9.5 -42.5q0 -33 -35 -58.5t-68 -25.5q-35 0 -69.5 35t-34.5 68v381q0 231 -51 231q-8 0 -35 -39q-145 -197 -145 -422q0 -33 8 -95t8 -93q0 -41 -25.5 -67.5t-66.5 -26.5q-47 0 -76 32q-10 14 -25 97q-12 76 -12 104z" />
<glyph unicode="n" horiz-adv-x="872" d="M51 801q0 33 38 62.5t69 29.5q45 0 92 -51l-6 -82q76 121 186 121q72 0 152 -49.5t116 -110.5q84 -156 84 -410v-297q-31 -47 -75 -47q-35 0 -115 41v25q0 45 3 133t3 129q0 438 -131 438q-37 0 -84 -57q-145 -176 -145 -424q0 -35 13 -103.5t13 -103.5q0 -29 -26.5 -47 t-57.5 -18q-123 0 -123 155v428q0 16 4.5 48t4.5 48q0 25 -7.5 72t-7.5 70z" />
<glyph unicode="o" horiz-adv-x="849" d="M41 356q0 184 92 349q105 194 275 194h2q53 0 133 -47q229 -138 229 -449q0 -184 -92 -315q-105 -149 -281 -149h-2q-180 0 -272 122q-84 109 -84 295zM236 360q0 -272 161 -272q104 0 156 113q39 86 39 207q0 313 -152 313q-109 0 -164 -133q-40 -98 -40 -222v-6z" />
<glyph unicode="p" horiz-adv-x="833" d="M51 180q0 68 8 185q8 131 11 182q1 25 1 59t-1 76q-2 106 -2 137q0 174 114 174q29 0 53.5 -19.5t24.5 -45.5q0 -45 -10 -164q80 113 192 113q152 0 234 -123q72 -107 72 -267q0 -209 -74 -354q-92 -188 -279 -188q-100 0 -172 57v-61v-62q0 -197 45 -309q20 -45 21 -57 q0 -70 -82 -70q-61 0 -92 22q-23 14 -45 103q-18 78 -19 119v493zM225 223q23 -12 80 -86q45 -55 90 -55q170 0 170 424q0 221 -94 221q-41 0 -106 -80q-127 -154 -140 -424z" />
<glyph unicode="q" horiz-adv-x="819" d="M41 309q0 174 74 353q92 223 239 223q84 0 156 -62q57 -61 117 -123q12 2 16 2q100 0 100 -88q0 -6 -38 -108q-49 -133 -50 -625q0 -289 86 -315v-82q-68 -33 -96 -33q-170 0 -170 505v24q-72 -35 -162 -35q-143 0 -213 114q-59 96 -59 250zM221 289q0 -209 107 -209 q184 0 184 426q0 35 -29 53q10 35 11 53q0 29 -40 71t-69 42q-90 0 -135 -180q-29 -119 -29 -256z" />
<glyph unicode="r" horiz-adv-x="655" d="M41 770q0 92 111 92q66 0 90 -39q57 63 129 64q49 0 94 -27q31 -16 72 -70t41 -85q0 -14 -5 -46q-43 -61 -90 -61q-39 0 -69 45q-4 92 -66 92q-37 0 -90 -194q-25 -86 -25 -240q0 -145 15 -176q16 -39 16 -53q0 -35 -31.5 -56.5t-70.5 -21.5q-111 0 -111 102q0 10 5 28.5 t5 27.5q0 104 -10 310t-10 308z" />
<glyph unicode="s" horiz-adv-x="806" d="M31 137q0 90 129 90q18 0 39 -2q6 -61 98 -98q68 -28 131 -28q12 0 23 1q59 4 59 43q0 6 -3 18.5t-3 19.5t-78 32q-88 27 -98 31q-233 139 -234 336q0 119 68 219q75 110 186 110h2q84 0 191.5 -65.5t132.5 -141.5q16 -53 16 -88q0 -37 -10 -61q-12 -31 -25 -61 q-39 -27 -77 -27q-20 0 -68.5 25.5t-48.5 44.5q0 8 24 53q14 27 15 45q0 123 -97 123q-57 0 -88 -74q-22 -55 -22 -118v-5q0 -82 117 -147q106 -47 215 -97q116 -53 116 -108q0 -96 -82 -168q-90 -78 -241 -78h-9q-62 0 -133 27q-246 92 -245 149z" />
<glyph unicode="t" horiz-adv-x="608" d="M31 711q0 8 4 18q53 76 119 76h12q8 -2 12 -2q41 0 41 91v9v150q-12 23 -12 39q0 27 31.5 48t60.5 21q43 0 82 -40t39 -85q0 -49 -16 -97q-14 -43 -13 -87v-12v-9q160 -16 160 -98q0 -55 -170 -78q-4 -45 -4 -204v-136q0 -41 13 -120.5t13 -118.5q0 -33 -32.5 -58.5 t-65.5 -25.5q-51 0 -86 88q-27 68 -26 131v434q-94 14 -109 19q-53 16 -53 47z" />
<glyph unicode="u" horiz-adv-x="751" d="M31 373q0 66 4 229q5 109 5 182q0 24 -1 45q61 45 102 45q98 0 99 -96q0 -33 -9.5 -98.5t-9.5 -97.5v-289q0 -49 27 -103q33 -61 78 -61q88 0 131 113q28 75 28 181v7v246q0 47 -24 117q51 47 98 47q49 0 89 -31t40 -78q0 -63 -15.5 -191t-15.5 -194q0 -57 5.5 -171 t5.5 -169q0 -47 -80 -47q-82 0 -105 80q-78 -51 -151 -51q-59 0 -135 31.5t-107 76.5q-59 86 -59 277z" />
<glyph unicode="v" horiz-adv-x="798" d="M31 797q0 33 29.5 58.5t62.5 25.5q39 0 121 -60q-14 -47 -15 -80q0 -111 54.5 -289t117.5 -268v-6q74 0 115 279q29 190 29 348q0 31 31.5 53.5t62.5 22.5q94 -1 94 -97q0 -147 -94 -450q-111 -348 -215 -348q-150 0 -266 293q-72 182 -117 426q-10 59 -10 92z" />
<glyph unicode="w" horiz-adv-x="1134" d="M31 594q0 135 10 219q29 45 76 45q41 0 83 -26.5t42 -63.5q0 -27 -13.5 -79t-13.5 -79q0 -451 96 -450q100 0 131 250q10 94 11 329q0 78 90 78q100 0 100 -112q0 -10 -3 -29t-3 -27v-231q0 -258 94 -258q80 0 121 188q31 131 31 256q0 106 -11 125q-2 4 -22 25 q-12 16 -12 30q0 37 32.5 67t69.5 30q55 0 88 -99q27 -75 27 -147q0 -184 -68 -381q-88 -258 -233 -258q-137 0 -228 170q-61 -180 -194 -180q-170 0 -248 233q-53 160 -53 375z" />
<glyph unicode="x" horiz-adv-x="954" d="M31 -10q0 68 305 434q-6 29 -103 164q-86 123 -124 166q37 96 131 96q70 0 129 -107q41 -82 82 -163q249 294 305 294q39 0 67.5 -28.5t28.5 -65.5q0 -35 -155.5 -181t-155.5 -169q0 -25 122.5 -168t141.5 -143q20 0 78 14v-74q0 -31 -45 -56.5t-80 -25.5q-92 0 -191 113 q-70 94 -139 191q-92 -104 -252 -416q-145 31 -145 125z" />
<glyph unicode="y" horiz-adv-x="837" d="M31 -293q0 29 23.5 48.5t51.5 19.5q18 0 88 -55.5t160 -55.5q115 0 154 84q29 57 29 184q0 47 -2 78q-68 -45 -152 -45q-154 0 -238 111q-75 99 -75 252q0 20 20 520q59 26 95 26h3q41 0 121 -49q-49 -123 -49 -491q0 -236 119 -236q88 0 135 148q35 106 35 221v250 q0 -2 -6 67q84 41 125 41q43 0 102 -39q-18 -102 -35 -202q-20 -119 -20 -203v-557q0 -152 -87 -231.5t-239 -79.5q-98 0 -217 51q-141 59 -141 143z" />
<glyph unicode="z" horiz-adv-x="786" d="M31 106q0 76 94 201q57 74 194 219q131 135 164 183l-10 2q-102 0 -203.5 -62.5t-107.5 -62.5q-39 0 -65.5 29.5t-26.5 68.5q0 70 211 133q178 51 276 51h3q161 0 161 -108q0 -45 -16 -74q-10 -18 -43 -51q-121 -121 -240 -242q-166 -176 -195 -256q18 -2 35 -2 q47 0 141.5 16.5t141.5 16.5q131 0 176 -107l-35 -43h-55h-12q-73 0 -201 -22q-139 -24 -207 -23q-68 0 -119 33q-61 37 -61 100z" />
<glyph unicode="{" horiz-adv-x="720" d="M0 629q0 29 45 49q25 10 74 33q84 51 102 170q2 10 10 209q6 207 94.5 290.5t297.5 83.5q61 0 61 -45q0 -37 -51 -69q-205 -10 -205 -170q0 -37 4 -110t4 -107q0 -227 -135 -334q135 -109 135 -334q0 -37 -4 -108.5t-4 -108.5q0 -160 203 -170q33 -16 33 -51 q0 -33 -33 -62h-78q-215 0 -277 137q-31 66 -38 295q-6 201 -76 279q-29 33 -117 74q-45 20 -45 49z" />
<glyph unicode="|" horiz-adv-x="350" d="M51 1368q68 45 107 45q45 0 86 -29.5t41 -74.5q0 -23 -11 -54q-14 -49 -16 -53q-27 -127 -27 -360v-381q6 -258 43 -361q11 -29 11 -45q0 -37 -30 -62.5t-69 -25.5q-129 0 -129 338q0 154 3 461t3 461q0 25 -6 72t-6 69z" />
<glyph unicode="}" horiz-adv-x="720" d="M0 -150q0 33 51 60q205 10 205 170q0 37 -5 109.5t-5 107.5q0 211 155 334q-154 123 -153 334q0 37 4 108.5t4 108.5q0 160 -203 170q-43 20 -43 61q0 51 43 51h78q215 0 277 -137q31 -66 38 -295q6 -201 76 -278q33 -39 117 -74q39 -17 39 -37q0 -29 -39 -61 q-133 -41 -168 -158q-14 -51 -16 -125q-2 -66 -2 -129q-8 -207 -95.5 -291t-296.5 -84h-10q-51 20 -51 55z" />
<glyph unicode="~" horiz-adv-x="714" d="M51 1501q0 41 88 82q78 35 125 35q49 0 101.5 -27.5t68.5 -27.5q27 0 69 27.5t64 27.5q66 0 66 -51q0 -39 -88 -84q-80 -39 -127 -39q-43 0 -100.5 26.5t-77.5 26.5q-27 0 -67 -22.5t-56 -22.5q-66 0 -66 49z" />
<glyph unicode="&#xa1;" horiz-adv-x="563" d="M51 -354q8 16 33 53q57 92 109 618q10 106 10 89q0 20 -37 159q18 16 55 47q25 4 49 4q41 0 76 -18q33 -61 33 -137q0 -172 -37 -355q-43 -215 -43 -249q0 -47 18 -115q16 -55 31 -111q-74 -63 -149 -63q-68 0 -148 78zM125 803q0 172 199 172q35 0 139 -41 q24 -51 24 -96q0 -131 -161 -131q-57 0 -121 22q-80 27 -80 74z" />
<glyph unicode="&#xa2;" horiz-adv-x="1093" d="M51 698q0 113 88 215q74 90 187 148q35 12 100 47l2 72q-10 59 -18 178v22q49 59 112 60q49 0 89 -37t40 -82q0 -33 -14 -84q-16 -59 -19 -84q39 4 54 4q88 0 196 -49q127 -59 127 -135q0 -43 -36.5 -66.5t-81.5 -23.5q-63 0 -143.5 54t-102.5 54q-27 0 -27 -20v-455 q47 10 162 74q106 57 111 57h73q31 -33 31 -67q0 -90 -145 -154q-111 -37 -224 -76q8 -164 35 -354q-70 -39 -100 -39q-55 0 -94 61q-33 51 -33 111q0 14 4 44t4 44v123q-160 27 -260 109q-117 98 -117 249zM227 676q0 -72 64 -127q57 -49 133 -53v407q-197 -98 -197 -227z " />
<glyph unicode="&#xa3;" horiz-adv-x="1261" d="M51 670q0 70 121 69q-25 96 -25 142q0 20 5.5 61t5.5 62q0 135 147 251q139 111 281 111q98 0 227 -41q92 -31 211 -129q133 -112 133 -192q0 -51 -61.5 -102.5t-114.5 -51.5q-43 0 -82 26.5t-39 67.5q0 33 29 59.5t61 20.5q-51 82 -152.5 137.5t-201.5 55.5 q-123 0 -204 -86.5t-81 -210.5q0 -123 47 -183h320q31 0 53.5 -21.5t22.5 -51.5q0 -88 -138 -89q-31 0 -81 7q-63 10 -84 10q57 -86 57 -176q0 -43 -45 -127q-35 -59 -70 -121q57 -2 219 -8q137 -6 219 -6q141 0 164 73q43 31 78 31q31 0 55 -27q2 -18 2 -36 q0 -92 -70.5 -146.5t-166.5 -54.5q-106 0 -320.5 6t-320.5 6q-39 0 -72 23.5t-33 60.5q0 23 17 47q59 33 102 125q35 78 70 154q-6 55 -33 94t-57 80q-102 -12 -107 -12q-88 0 -88 92z" />
<glyph unicode="&#xa4;" horiz-adv-x="1314" d="M51 838q0 59 96 59q2 0 86 -6q61 219 195 354q152 156 363 156q106 0 215.5 -55.5t160.5 -143.5q12 -25 13 -43q0 -37 -28 -65.5t-62 -28.5q-18 0 -112.5 82t-172.5 82q-274 0 -381 -320h278q76 0 76 -86q0 -31 -22.5 -51t-53.5 -20h-315l-4 -113h367q76 0 75 -88 q0 -29 -22.5 -50.5t-52.5 -21.5h-377q0 -20 6 -27.5t10 -23.5q33 -156 105 -227q82 -82 233 -82q207 0 311 174q41 31 84 31q31 0 57.5 -18.5t26.5 -49.5q0 -25 -26 -57q-109 -125 -197 -174q-104 -61 -252 -62q-78 0 -170 31q-201 61 -281.5 169.5t-89.5 313.5h-14 q-96 -2 -96 90q0 80 117 74l4 111l-51 -2q-98 0 -99 88z" />
<glyph unicode="&#xa5;" horiz-adv-x="1382" d="M51 1303q0 43 38 68.5t81 25.5q160 0 514 -539q14 29 47 86q76 125 150 248q84 145 118 262q55 43 101 43q61 0 172 -119q-39 -33 -115 -106q-33 -37 -205 -301t-172 -281v-53h230q76 0 75 -88q0 -31 -22.5 -51.5t-52.5 -20.5h-230v-63h230q76 0 75 -90 q0 -31 -22.5 -52.5t-52.5 -21.5h-230v-160q0 -43 -51 -85t-96 -42q-35 0 -79 31t-44 65q0 10 22 52q8 16 21 139h-195q-76 0 -75 92q0 31 23.5 51.5t51.5 20.5h209l4 63h-206q-76 0 -76 88q0 31 23.5 51.5t52.5 20.5h215l2 43q-80 141 -197 311q-164 240 -223 254l-33 -18 h-43q-35 43 -35 76z" />
<glyph unicode="&#xa8;" horiz-adv-x="643" d="M51 1532q0 37 32 61.5t71 24.5t70.5 -24.5t31.5 -61.5q0 -35 -31.5 -59.5t-70.5 -24.5t-71 24.5t-32 59.5zM358 1532q0 37 32 61.5t71 24.5t70.5 -24.5t31.5 -61.5q0 -35 -31.5 -59.5t-70.5 -24.5t-71 24.5t-32 59.5z" />
<glyph unicode="&#xa9;" horiz-adv-x="1742" d="M72 678q0 313 229 530q223 211 533 211q309 0 532 -211q229 -217 229 -530t-226 -527t-535 -214t-533 210q-229 217 -229 531zM195 678q0 -264 194 -447q186 -176 445 -176q258 0 444 176q195 183 195 447t-195 446q-186 176 -444 176t-445 -176q-195 -182 -194 -446z M416 608q0 221 114 404q129 205 326 205q133 0 209 -97q70 -90 70 -235q0 -66 -39 -162q-45 -102 -88 -102q-51 0 -88 63q20 16 59 55q23 27 22 113q0 86 -24 152q-37 92 -115 92q-57 0 -123 -60q-51 -45 -86 -104q-84 -141 -84 -350q0 -305 273 -306q100 0 159 39 q49 33 107 119q37 59 74 60q27 0 46 -17.5t19 -42.5q0 -125 -145 -205q-125 -68 -266 -67q-197 0 -308.5 122t-111.5 324z" />
<glyph unicode="&#xab;" horiz-adv-x="749" d="M10 696q0 23 25 37l225 330q16 8 31 8q29 0 46 -22.5t17 -49.5q0 -25 -14 -43l-195 -254q53 -63 109 -129q94 -123 94 -198q0 -49 -41 -49q-33 0 -53 26q-41 45 -135 176q-109 147 -109 168zM276 696q0 23 25 37l225 330q16 8 31 8q29 0 46.5 -22.5t17.5 -49.5 q0 -31 -91 -147q-59 -74 -120 -150q59 -72 118 -143q117 -158 117 -242q0 -49 -41 -49q-31 0 -53 25q-37 41 -152 205q-123 176 -123 198z" />
<glyph unicode="&#xac;" horiz-adv-x="1124" d="M51 551q0 59 191 145q27 336 26 441q0 23 -5 71.5t-5 73.5t4 55q39 49 103 49q55 0 86 -73q25 -57 24 -123q0 -139 -24 -385q186 100 206 100q70 0 70 -106q0 -61 -295 -199q-10 -133 -10 -235q0 -242 137 -242q61 0 176 42t176 42q57 0 88 -51q25 -42 25 -103 q-221 -80 -467 -80q-209 0 -285 168q-55 119 -45 353q-88 -47 -106 -48q-70 0 -70 105z" />
<glyph unicode="&#xad;" horiz-adv-x="681" d="M51 580q0 59 53 59q16 0 48 -8t49 -8q43 0 130 4t130 4q127 -1 141 -58q-12 -4 -12 -14q0 -6 5 -16.5t5 -16.5q0 -23 -70 -22q-14 0 -38.5 5t-38.5 5q-35 0 -106 -2t-107 -2q-188 0 -189 70z" />
<glyph unicode="&#xae;" horiz-adv-x="899" d="M20 1010q0 160 120 274.5t290 114.5t290 -114.5t120 -274.5t-120 -274.5t-290 -114.5t-290 114.5t-120 274.5zM102 1010q0 -129 96.5 -220.5t231.5 -91.5q106 0 193 60l-25 8q-4 29 -94 90.5t-119 61.5l-23 -3v-22q0 -61 25 -92q0 -41 -39 -41q-68 0 -63 166h-4 q-49 18 -50 41q0 31 50 43q4 41 10 120q4 23 10 66q-35 0 -35 33q0 14 27 33q39 27 39 26q12 0 33.5 -6t31.5 -6q86 0 148 -35q78 -45 78 -129q0 -68 -37 -102l-90 -58q51 -35 104 -67q53 -43 57 -101q101 93 101 226q0 129 -96.5 220t-231.5 91t-231.5 -91t-96.5 -220z M360 1004q39 -14 50 -15q49 0 92 40t43 87q0 86 -133 86h-15q-10 -31 -24 -90q-8 -39 -13 -108z" />
<glyph unicode="&#xaf;" horiz-adv-x="569" d="M51 1518q0 49 33 49h377q33 -1 33 -54q0 -49 -29 -49h-381q-33 0 -33 54z" />
<glyph unicode="&#xb0;" horiz-adv-x="743" d="M51 1026q0 96 43 188q47 102 127 146q47 27 76 26q39 0 109 -30l10 -23h6q109 4 176 -82q61 -79 61 -192q0 -147 -79 -240q-84 -98 -232 -98q-137 0 -217 83t-80 222zM217 1030q0 -168 115 -168q70 0 119 66q43 61 43 131t-31 102q-20 20 -69.5 40t-65.5 40 q-45 -31 -78 -93.5t-33 -117.5z" />
<glyph unicode="&#xb4;" horiz-adv-x="483" d="M51 1450v16q55 68 129 138q100 96 146 96q27 0 53.5 -28.5t32.5 -57.5q-14 -35 -37 -44t-154 -89q-113 -66 -143 -66q-29 0 -27 35z" />
<glyph unicode="&#xb6;" horiz-adv-x="1099" d="M51 930q0 182 124 296.5t317 114.5h18q-2 6 -2 13q0 35 26.5 56.5t57.5 21.5q74 0 88 -103l74 -2v47q0 33 23.5 55.5t58.5 22.5q88 0 84 -149q76 -16 75 -78q0 -70 -69 -80q12 -197 12 -277q0 -90 -10 -190q33 -2 53 -25.5t20 -54.5q0 -63 -94 -84q-2 -20 -2 -43 q0 -33 8.5 -101.5t8.5 -101.5q0 -37 -7.5 -119.5t-7.5 -115.5t-20 -86q-25 -63 -51 -64q-37 0 -68 62q-25 51 -25 86v225q0 14 -4 115q-4 70 0 114q-31 0 -82 -2v-24q0 -66 5.5 -194t5.5 -189q0 -35 -23.5 -57.5t-58.5 -22.5q-72 0 -82 70q-20 127 -15 409 q-193 12 -315.5 137t-122.5 318zM225 940q0 -147 77 -232t214 -87l16 426q1 55 7 170q-23 2 -47 2q-127 0 -197 -75t-70 -204zM662 645l94 -2q8 106 8 256q0 174 -8 285h-80z" />
<glyph unicode="&#xb7;" horiz-adv-x="411" d="M51 641q0 45 62 70q45 16 100 16q41 0 85 -23.5t44 -60.5q0 -43 -53 -68q-43 -18 -92 -18q-43 0 -91 21q-55 25 -55 63z" />
<glyph unicode="&#xb8;" horiz-adv-x="417" d="M51 -100q0 20 37 55q27 23 53 47l107 2q-18 -23 -53 -72q74 -12 96 -20q59 -23 59 -68q0 -63 -86 -110q-41 -23 -143 -56q-53 10 -53 43q0 20 18 34t154 77q-10 6 -107 25q-82 14 -82 43z" />
<glyph unicode="&#xbb;" horiz-adv-x="729" d="M72 1026q0 49 59 49q23 0 37 -12q27 -23 139.5 -180.5t112.5 -175.5q0 -25 -23 -37l-225 -351q-16 -8 -33 -8q-27 0 -45 22.5t-18 49.5q0 31 90 156q61 80 121 159q-61 82 -123 166q-92 131 -92 162zM356 997q0 49 62 50q20 0 35 -13q25 -20 129 -162q104 -147 104 -165 q0 -25 -22 -37l-205 -330q-16 -8 -33 -8q-27 0 -45.5 22.5t-18.5 48.5q0 29 191 295q-197 270 -197 299z" />
<glyph unicode="&#xbf;" horiz-adv-x="1189" d="M51 -63q0 135 160 256q49 37 295 174q160 90 160 149q0 16 -22.5 56t-22.5 73l2 14q25 6 51 7q61 0 128.5 -51.5t67.5 -112.5q0 -104 -157 -205q-143 -80 -289 -162q-156 -98 -156 -198q0 -78 64 -125q57 -43 137 -43q78 0 209 63q125 61 182 121q-80 20 -80 67 q0 39 45 72t86 33q53 0 114.5 -50.5t61.5 -103.5q0 -80 -139 -194q-119 -98 -217 -135q-143 -53 -225 -54q-141 0 -291 103q-164 111 -164 246zM588 864q0 31 57 62q49 27 84 26q41 0 86 -30.5t45 -69.5q0 -37 -38 -63.5t-77 -26.5q-45 0 -98 26q-59 33 -59 76z" />
<glyph unicode="&#xc0;" d="M51 84q0 12 37 115q41 147 133 440q276 758 457 758q260 0 354 -953q53 -14 68 -20q33 -18 33 -57q0 -98 -89 -101q10 -49 46 -129q-2 -45 -37 -74.5t-82 -29.5q-37 0 -86 24q-27 53 -27 125q0 18 2 54t2 55q0 -14 -67 -15q-117 0 -271 -10q-225 -14 -245.5 -35.5 t-26.5 -222.5q-27 -39 -68 -39q-43 0 -88 36t-45 79zM322 403q66 14 194 35q117 14 330 8q-90 721 -162 721q-57 0 -201 -342q-102 -242 -161 -422zM528 1614q6 29 33 57.5t53 28.5q45 0 146 -96q74 -70 127 -138l2 -16q2 -35 -27 -35q-31 0 -143 66q-131 80 -153.5 89 t-37.5 44z" />
<glyph unicode="&#xc1;" d="M51 84q0 14 37 115q39 147 133 440q276 758 457 758q178 0 274 -400q43 -180 80 -553q53 -14 68 -20q33 -18 33 -57q0 -100 -89 -101q10 -49 46 -129q-2 -45 -37 -74.5t-82 -29.5q-37 0 -86 24q-27 53 -27 125q0 18 2 54t2 55q0 -14 -67 -15q-117 0 -271 -10 q-225 -14 -245.5 -35.5t-26.5 -222.5q-27 -39 -68 -39q-43 0 -88 36t-45 79zM322 403q66 14 194 35q117 14 330 8q-90 721 -162 721q-57 0 -201 -342q-102 -242 -161 -422zM483 1450l2 16q53 68 127 138q100 96 146 96q27 0 54.5 -28.5t31.5 -57.5q-14 -35 -37 -44t-154 -89 q-113 -66 -143 -66q-29 0 -27 35z" />
<glyph unicode="&#xc2;" d="M51 84q0 14 37 115q27 74 67 221t66 217q274 760 457 760q178 0 274 -402q43 -178 80 -551q101 -22 101 -77q0 -100 -89 -101q12 -51 46 -129q-2 -45 -37 -74.5t-82 -29.5q-37 0 -86 24q-4 6 -23 127q-14 92 -47 92q-102 0 -287 -12q-233 -16 -251.5 -37.5t-24.5 -218.5 q-27 -39 -68 -39q-43 0 -88 36t-45 79zM322 403q66 14 194 35q117 14 330 6q-92 721 -162 721q-57 0 -201 -340q-102 -242 -161 -422zM420 1425q0 33 123 130.5t157 97.5q43 0 269 -187q8 -16 8 -32q0 -37 -45 -37q-35 0 -94 45q-70 51 -95 61q-14 4 -43 15q-29 -10 -84 -41 q-109 -80 -145 -80q-51 0 -51 28z" />
<glyph unicode="&#xc3;" d="M51 84q0 14 37 115q41 147 133 438q274 758 457 758q178 0 274 -400q43 -178 80 -551q53 -14 68 -20q33 -18 33 -57q0 -100 -89 -103q10 -47 46 -127q-2 -45 -37 -74.5t-82 -29.5q-37 0 -86 24q-27 53 -27 125q0 20 2 55t2 52q0 -12 -67 -13q-115 0 -275 -10 q-223 -14 -242.5 -36.5t-25.5 -221.5q-27 -39 -68 -39q-43 0 -88 36t-45 79zM322 403q66 14 194 35q117 14 330 6q-92 721 -162 721q-57 0 -201 -340q-102 -244 -161 -422zM340 1501q0 41 88 82q78 35 125 35q49 0 100.5 -27.5t69.5 -27.5q25 0 66.5 27.5t64.5 27.5 q66 0 66 -51q0 -39 -89 -84q-80 -39 -124 -39q-43 0 -101.5 26.5t-77.5 26.5q-27 0 -66.5 -22.5t-55.5 -22.5q-66 0 -66 49z" />
<glyph unicode="&#xc4;" d="M51 84q0 14 37 115q41 147 133 438q274 758 457 758q178 0 274 -400q43 -180 80 -551q53 -14 68 -20q33 -18 33 -57q0 -100 -89 -103q10 -47 46 -127q-2 -45 -37 -74.5t-82 -29.5q-37 0 -86 24q-27 53 -27 125q0 20 2 55t2 52q0 -14 -67 -15q-115 0 -275 -8 q-223 -14 -242.5 -36.5t-25.5 -221.5q-27 -39 -68 -39q-43 0 -88 36t-45 79zM322 403q66 14 194 35q117 12 330 6q-92 721 -162 721q-57 0 -201 -340q-102 -244 -161 -422zM397 1497q0 51 37 86t86 35t86 -35t37 -86q0 -49 -37 -84t-86 -35t-86 35t-37 84zM705 1497 q0 51 36.5 86t85.5 35t86 -35t37 -86q0 -49 -36.5 -84t-86.5 -35q-49 0 -85.5 35t-36.5 84z" />
<glyph unicode="&#xc5;" d="M51 84q0 14 37 115q41 147 133 440q274 760 457 760q178 0 274 -402q43 -180 80 -553q53 -12 68 -20q33 -18 33 -57q0 -98 -89 -101q10 -49 46 -129q-2 -45 -37 -74.5t-82 -29.5q-37 0 -86 24q-27 53 -27 127q0 18 2 54t2 53q0 -14 -67 -15q-115 0 -275 -10 q-223 -14 -242.5 -36.5t-25.5 -221.5q-27 -39 -68 -39q-43 0 -88 36t-45 79zM322 403q66 14 194 37q117 12 330 6q-90 721 -162 721q-57 0 -201 -340q-102 -244 -161 -424zM516 1563q0 53 53 88q47 29 105 28q57 0 104 -28q53 -35 53 -88t-50 -85t-107 -32t-105 29 q-53 35 -53 88zM612 1563q0 -45 62 -45q59 0 59 45t-59 45q-61 0 -62 -45z" />
<glyph unicode="&#xc6;" horiz-adv-x="1939" d="M51 82q0 14 53 119q59 147 193 436q113 219 248 428q211 322 307 321q27 0 76 -12t76 -12q143 0 487 57q41 8 68 8q135 0 241 -122q-59 -57 -106 -58q-12 0 -38 3t-38 3q-115 0 -258 -16q-182 -18 -244 -51q-14 -164 -24 -449q10 2 145 12.5t160 10.5q74 0 180 -51v-56 q0 -37 -72 -90q-43 43 -55 43q-172 0 -367 -55l-2 -111q90 -20 90 -75q0 -41 -28.5 -71t-69.5 -32q8 -125 94 -125q82 0 232.5 54.5t230.5 54.5q129 0 172 -74v-18q2 -13 2 -17q0 -59 -71 -59q-8 0 -23.5 3t-23.5 3q-92 0 -266.5 -55.5t-268.5 -55.5q-244 0 -264 297 q-37 4 -62 4q-115 0 -278 -12q-221 -14 -250 -39q-20 -18 -55 -219q-29 -35 -68 -35q-45 0 -84 35t-39 78zM369 401q59 12 182 33q127 14 336 8v78q-70 4 -70 84q0 76 74 92q0 37 10 205q6 125 6 203l-2 92q-12 18 -35 18q-94 0 -501 -813z" />
<glyph unicode="&#xc7;" horiz-adv-x="1150" d="M51 569q0 221 66 410q76 217 225 344q113 98 238 98q174 0 264 -153q74 -125 74 -312q0 -84 -44 -213q-51 -156 -114 -155q-70 0 -109 88q18 16 58.5 53t40.5 172q0 127 -27 215q-41 137 -135 137q-66 0 -144 -84q-59 -63 -100 -143q-100 -199 -100 -494q0 -430 319 -430 q137 0 217 80q33 33 97 146q43 80 92 80q33 0 57.5 -24.5t24.5 -57.5q0 -133 -117 -240q-102 -94 -242 -123q-31 -4 -88 -10q158 -35 158 -105q0 -82 -94 -137q-41 -25 -166 -67q-80 14 -80 71q0 29 29 56q14 4 45 4q104 0 104 57q0 27 -79 35t-79 39q0 27 19 51 q-211 37 -318 221q-92 158 -92 391z" />
<glyph unicode="&#xc8;" horiz-adv-x="1107" d="M51 461q0 397 21 631q4 55 4 59q0 23 -6.5 60.5t-6.5 50.5q14 10 44 30.5t61 24.5q2 2 276 65q166 39 279 39q135 0 242 -125q-59 -57 -107 -57q-12 0 -37.5 3t-38.5 3q-88 0 -252 -26q-176 -31 -239 -64q-14 -152 -37 -455q55 4 174 29q111 27 174 27q59 0 137 -37 q20 -66 21 -80q0 -45 -96 -78q-35 23 -70 23q-156 0 -350 -66q-4 -31 -4 -131q0 -121 10 -162q23 -94 106 -94q76 0 218.5 48t218.5 48q156 1 217 -108q-29 -59 -72 -60q-8 0 -23.5 3.5t-23.5 3.5q-88 0 -255 -54.5t-255 -54.5q-330 0 -330 504zM199 1655q4 29 31.5 57.5 t54.5 28.5q45 0 145 -96q74 -70 127 -138l2 -16q2 -35 -27 -35q-31 0 -143 66q-131 80 -153.5 89t-36.5 44z" />
<glyph unicode="&#xc9;" horiz-adv-x="1107" d="M51 461q0 401 21 629q12 141 14 149q20 76 109 88q51 4 151 21q170 41 375 59q14 2 59 8q35 6 58 6q51 0 88 -43q0 -141 -68 -141q-12 0 -37.5 3t-38.5 3q-88 0 -252 -26q-176 -31 -239 -64q-14 -150 -37 -453q55 2 174 29q111 25 174 25q59 0 137 -37q20 -66 21 -80 q0 -43 -96 -76q-35 20 -70 21q-156 0 -350 -64q-4 -33 -4 -131q0 -121 10 -162q23 -94 106 -94q76 0 218.5 48t218.5 48q156 1 217 -108q-29 -59 -72 -60q-8 0 -23.5 3.5t-23.5 3.5q-88 0 -255 -54.5t-255 -54.5q-330 0 -330 504zM338 1450l2 16q53 68 127 138 q102 96 145 96q27 0 54.5 -28.5t31.5 -57.5q-14 -35 -36.5 -44t-153.5 -89q-113 -66 -141 -66q-31 0 -29 35z" />
<glyph unicode="&#xca;" horiz-adv-x="1107" d="M51 461q0 397 21 629q4 55 4 61q0 14 -8.5 43t-8.5 45q0 55 109 78q57 8 176 26q111 23 223 48q129 25 226 24q72 0 103.5 -24.5t39.5 -94.5q-16 -18 -33 -36q-23 -20 -45 -21q-12 0 -37.5 2t-38.5 2q-88 0 -252 -26q-176 -31 -239 -62q-14 -152 -37 -455q55 2 174 29 q111 25 174 25q59 0 137 -37q20 -63 21 -80q0 -43 -96 -76q-35 23 -70 23q-156 0 -350 -66q-4 -33 -4 -131q0 -121 10 -162q23 -94 106 -94q76 0 218.5 48t218.5 48q156 1 217 -108q-39 -80 -72 -80q-8 0 -23.5 3t-23.5 3q-88 0 -255 -44t-255 -44q-330 0 -330 504z M213 1487q0 33 123 130t160 97q41 0 266 -186q10 -17 10 -33q0 -37 -47 -37q-35 0 -94 45q-70 51 -94 62q-14 4 -41 14q-31 -10 -86 -41q-109 -80 -146 -80q-51 0 -51 29z" />
<glyph unicode="&#xcb;" horiz-adv-x="1101" d="M51 457q0 393 21 622q2 31 2 33q0 14 -4 42t-4 40q0 94 102 111q158 29 315 59q207 39 310 39q59 0 104 -21q61 -29 61 -79q0 -76 -100 -76q-12 0 -37.5 3t-38.5 3q-166 0 -452 -74q-16 -2 -30.5 -6t-20.5 -31q-23 -98 -23 -385q0 -43 39 -43q53 0 153.5 27t153.5 27 q59 0 137 -37q20 -66 21 -80q0 -51 -31 -55.5t-65 -8.5q-16 10 -46 11q-72 0 -172 -19q-84 -18 -170 -35q-12 -2 -21 -4t-13 -24q-4 -37 -4 -60q0 -158 6 -188q20 -119 112 -119q78 0 227.5 48t237.5 48q139 1 180 -71q0 -35 -14 -62q-18 -35 -49 -35q-8 0 -23.5 3t-23.5 3 q-88 0 -255 -53t-255 -53q-330 0 -330 500zM227 1491q0 37 32 61.5t71 24.5t70.5 -24.5t31.5 -61.5q0 -35 -31.5 -59.5t-70.5 -24.5t-71 24.5t-32 59.5zM535 1532q0 37 31.5 61.5t70.5 24.5t70.5 -24.5t31.5 -61.5q0 -35 -31.5 -59.5t-70.5 -24.5t-70.5 24.5t-31.5 59.5z " />
<glyph unicode="&#xcc;" horiz-adv-x="483" d="M51 1614q4 29 32 57.5t54 28.5q45 0 146 -96q74 -70 127 -138l2 -16q2 -35 -27 -35q-31 0 -143 66q-131 80 -153.5 89t-37.5 44zM106 944q0 248 5 313q4 45 52 87t93 42q41 0 83 -28.5t42 -67.5q0 -10 -19 -47q-10 -16 -16 -92q-43 -465 -43 -758q0 -225 76 -334 q-80 -55 -117 -55q-104 0 -129 170q-27 207 -27 770z" />
<glyph unicode="&#xcd;" horiz-adv-x="483" d="M51 1450v16q55 68 129 138q100 96 146 96q27 0 53.5 -28.5t32.5 -57.5q-14 -35 -37 -44t-154 -89q-113 -66 -143 -66q-29 0 -27 35zM92 739q0 84 2 255t2 257q0 47 50.5 91t97.5 44q37 0 80 -31.5t43 -64.5q0 -8 -19 -47q-10 -18 -16 -92q-43 -479 -43 -758 q0 -225 76 -334q-80 -55 -117 -55q-104 0 -129 170q-27 203 -27 565z" />
<glyph unicode="&#xce;" horiz-adv-x="690" d="M51 1405q0 33 123 130t160 97q41 0 266 -186q10 -17 10 -33q0 -37 -47 -37q-35 0 -94 45q-70 51 -94 62q-14 4 -41 14q-31 -10 -86 -41q-109 -80 -144 -80q-53 0 -53 29zM186 737q0 86 3.5 256t3.5 256q0 47 49 91t96 44q37 0 80 -30.5t43 -65.5q0 -8 -19 -47 q-10 -18 -16 -92q-43 -477 -43 -758q0 -223 76 -332q-80 -55 -117 -55q-104 0 -127 170q-29 203 -29 563z" />
<glyph unicode="&#xcf;" horiz-adv-x="620" d="M51 1479q0 49 37 83.5t86 34.5t86 -34.5t37 -83.5t-37 -85t-86 -36t-86 36t-37 85zM150 737q0 86 3 256t3 256q0 47 49 91t98 44q35 0 79 -31.5t44 -64.5q0 -8 -20 -47q-8 -18 -17 -92q-43 -477 -43 -758q0 -223 76 -332q-78 -55 -117 -55q-104 0 -127 170 q-29 203 -28 563zM297 1497q0 51 37 86t86 35t86 -35t37 -86q0 -49 -37 -84t-86 -35t-86 35t-37 84z" />
<glyph unicode="&#xd1;" horiz-adv-x="1157" d="M51 297q0 35 2 104.5t2 104.5q0 84 20.5 251t20.5 253v252q0 4 -3 12t-3 12q0 39 55 68q45 23 91 22q104 0 149 -67q12 -23 23 -95l12 -102q25 -158 131 -494q125 -399 184 -399q23 0 23 57q0 18 -5 55.5t-5 55.5l-7 586q0 109 56 256q68 178 157 178q45 0 101 -37 q2 -10 2 -18q0 -35 -19 -49q-2 0 -47 -25q-57 -29 -59 -348l-6 -592q-2 -90 -41 -186q-51 -119 -127 -119q-113 0 -223 188q-80 141 -162 391q-49 160 -97 322q-43 -350 -43 -471q0 -264 32 -304t32 -59q0 -37 -41 -67.5t-82 -30.5q-57 0 -94 123q-29 94 -29 172zM250 1501 q0 41 88 82q78 35 125 35q49 0 100 -27.5t70 -27.5q25 0 66.5 27.5t64.5 27.5q65 0 65 -51q0 -39 -88 -84q-80 -39 -125 -39q-43 0 -101 26.5t-77 26.5q-29 0 -67.5 -22.5t-55.5 -22.5q-66 0 -65 49z" />
<glyph unicode="&#xd2;" horiz-adv-x="1288" d="M51 600q0 299 142 537q168 279 446 278q283 0 424 -227q119 -191 119 -488t-144 -501q-164 -236 -446 -236q-76 0 -172 31q-369 115 -369 606zM233 543q0 -39 17 -111q35 -158 104 -229q80 -82 234 -82q211 0 315 205q82 162 82 393q0 190 -51 301q-63 139 -223 194 q-25 8 -45 9q-115 0 -230 -105q-203 -184 -203 -575zM453 1655q6 29 32.5 57.5t53.5 28.5q45 0 147 -96q74 -70 127 -138v-16q2 -35 -27 -35t-141 66q-133 80 -155.5 89t-36.5 44z" />
<glyph unicode="&#xd3;" horiz-adv-x="1288" d="M51 598q0 319 146 549q172 266 471 266q248 0 391 -242q123 -207 123 -471q0 -297 -144 -501q-164 -236 -446 -236q-76 0 -172 31q-369 115 -369 604zM233 543q0 -41 17 -111q35 -158 104 -229q80 -82 234 -82q211 0 315 205q82 160 82 393q0 190 -51 301 q-63 139 -223 192q-25 10 -45 11q-115 0 -230 -105q-203 -184 -203 -575zM471 1470v17q53 68 127 137q102 96 145 96q29 0 55.5 -28.5t30.5 -57.5q-14 -35 -35.5 -44t-154.5 -89q-113 -66 -141 -65q-29 0 -27 34z" />
<glyph unicode="&#xd4;" horiz-adv-x="1288" d="M51 594q0 303 146 534q168 272 454 273q252 0 402 -236q129 -203 129 -471q0 -295 -146 -499q-162 -231 -444 -232q-80 0 -172 31q-205 66 -293 227q-76 139 -76 373zM233 537q0 -39 17 -109q35 -158 104 -227q80 -82 234 -82q209 0 315 203q82 160 82 391 q0 426 -274 510q-29 8 -66 8q-115 0 -229 -103q-182 -166 -183 -591zM362 1446q0 33 123 130t160 97q41 0 266 -186q11 -17 11 -33q0 -37 -48 -37q-35 0 -94 45q-70 51 -94 62q-14 4 -41 14q-31 -10 -86 -41q-109 -80 -145 -80q-51 0 -52 29z" />
<glyph unicode="&#xd5;" horiz-adv-x="1288" d="M51 598q0 297 139 535q164 281 443 280q281 0 426 -225q123 -191 123 -488t-144 -503q-164 -233 -446 -234q-76 0 -172 31q-369 115 -369 604zM233 541q0 -39 17 -109q35 -160 104 -229q80 -84 234 -84q211 0 315 205q82 162 82 393q0 190 -51 301q-63 139 -223 192 q-25 10 -45 11q-115 0 -230 -105q-203 -184 -203 -575zM326 1522q0 41 88 82q78 35 125 34q49 0 100 -27.5t70 -27.5q27 0 67.5 27.5t65.5 27.5q65 0 65 -51q0 -39 -88 -84q-80 -39 -127 -39q-43 0 -100 27t-78 27q-27 0 -66.5 -22.5t-56.5 -22.5q-66 0 -65 49z" />
<glyph unicode="&#xd6;" horiz-adv-x="1288" d="M51 598q0 244 101 459q119 248 323 323q-41 8 -69.5 42t-28.5 75q0 51 37 86t86 35t86 -35t37 -86q0 -55 -45 -90q37 4 73 4q41 0 80 -6q-47 37 -47 92q0 51 37 86t86 35t86 -35t37 -86q0 -45 -32 -79t-77 -40q176 -70 275 -282q86 -185 86 -398q0 -295 -144 -501 q-164 -233 -446 -234q-78 0 -172 31q-205 66 -293 229q-76 139 -76 375zM233 541q0 -39 17 -109q35 -160 104 -229q80 -84 234 -84q211 0 315 205q82 162 82 393q0 190 -51 301q-63 137 -223 192q-25 8 -45 9q-115 0 -230 -103q-203 -184 -203 -575z" />
<glyph unicode="&#xd8;" horiz-adv-x="1288" d="M51 594q0 305 146 539q168 274 454 274q80 0 154 -25q20 174 174 174q47 0 102 -57q-41 -74 -112 -223q213 -209 213 -580q0 -297 -144 -503q-164 -233 -446 -234q-94 0 -211 43q-80 -125 -156 -125q-33 0 -56.5 19.5t-23.5 50.5q0 20 80 145q-174 156 -174 502zM233 537 q0 -152 78 -283q256 498 434 942q-47 20 -79 21q-115 0 -230 -105q-203 -184 -203 -575zM455 137q61 -23 133 -22q211 0 315 207q82 160 82 391q0 252 -98 379q-209 -481 -209 -482q-121 -274 -223 -473z" />
<glyph unicode="&#xd9;" horiz-adv-x="1015" d="M51 606q0 94 12.5 284.5t12.5 287.5q0 16 -12.5 47.5t-12.5 50.5q0 37 46 68.5t85 31.5q63 0 108.5 -35.5t45.5 -99.5q0 -6 -2 -31q-35 4 -43 -16q-4 -8 -7 -44t-24 -224q-14 -133 -14 -219v-256q0 -119 43 -209q57 -117 164 -117q207 0 272 383q31 176 31 549 q0 135 -41 221q-12 25 -13 39q0 37 28 71.5t65 34.5q39 0 83 -27.5t44 -66.5v-569q0 -172 -41 -365q-49 -240 -136 -327q-109 -115 -262 -115q-137 0 -243 84q-115 94 -158 260q-31 115 -31 309zM262 1593q4 29 32 57.5t54 28.5q43 0 146 -96q74 -70 127 -137l2 -16 q2 -35 -29 -35q-29 0 -141 65q-133 80 -155 89.5t-36 43.5z" />
<glyph unicode="&#xda;" horiz-adv-x="1015" d="M51 606q0 94 12.5 284.5t12.5 287.5q0 16 -12.5 47.5t-12.5 50.5q0 37 46 68.5t85 31.5q63 0 108.5 -35.5t45.5 -99.5q0 -6 -2 -31q-35 4 -43 -16q-4 -8 -7 -44t-24 -224q-14 -133 -14 -219v-256q0 -119 43 -209q57 -117 164 -117q207 0 272 383q31 176 31 549 q0 135 -41 221q-12 25 -13 39q0 37 28 71.5t65 34.5q39 0 83 -27.5t44 -66.5v-569q0 -172 -41 -365q-49 -240 -136 -327q-109 -115 -262 -115q-137 0 -243 84q-115 94 -158 260q-31 115 -31 309zM340 1450v16q53 68 129 138q100 96 145 96q27 0 53.5 -28.5t32.5 -57.5 q-14 -35 -36.5 -44t-153.5 -89q-113 -66 -143 -66q-29 0 -27 35z" />
<glyph unicode="&#xdb;" horiz-adv-x="1015" d="M51 606q0 96 12.5 286.5t12.5 287.5q0 16 -12.5 48t-12.5 48q0 39 46 70.5t85 31.5q141 0 142 -82q0 -10 -9 -77q-23 -23 -26.5 -29t-3.5 -29l-2 -14q-2 -61 -21 -219q-16 -139 -16 -221v-254q0 -119 43 -211q57 -115 164 -115q207 0 272 383q31 176 31 551 q0 141 -41 219q-27 51 -27 74q0 33 35 52t72 19q39 0 83 -28.5t44 -65.5v-571q0 -172 -41 -365q-49 -236 -136 -327q-106 -115 -262 -115q-139 0 -243 86q-117 96 -158 258q-31 115 -31 309zM193 1487q0 33 121.5 130t158.5 97q43 0 268 -186q9 -17 9 -33q0 -37 -48 -37 q-33 0 -92 45q-72 51 -94 62q-14 4 -43 14q-29 -10 -86 -41q-109 -80 -143 -80q-51 0 -51 29z" />
<glyph unicode="&#xdc;" horiz-adv-x="1015" d="M51 604q0 96 12.5 285.5t12.5 286.5q0 16 -12.5 47.5t-12.5 50.5q0 37 46 68.5t85 31.5q63 0 108.5 -35.5t45.5 -99.5q0 -6 -2 -31q-35 4 -43 -16q-4 -8 -7 -44t-24 -222q-14 -133 -14 -221v-254q0 -119 43 -209q57 -117 164 -117q207 0 272 383q31 174 31 547 q0 135 -41 221q-12 25 -13 39q0 37 28 71.5t65 34.5q39 0 83 -27.5t44 -66.5v-569q0 -170 -41 -365q-49 -238 -136 -325q-109 -115 -262 -115q-137 0 -243 84q-115 94 -158 260q-31 115 -31 307zM213 1497q0 51 37 86t86 35t86 -35t37 -86q0 -49 -37 -84t-86 -35t-86 35 t-37 84zM520 1497q0 51 37 86t86 35t86 -35t37 -86q0 -49 -37 -84t-86 -35t-86 35t-37 84z" />
<glyph unicode="&#xdf;" horiz-adv-x="1048" d="M51 430q0 397 68 617q113 369 416 368q123 0 206 -69q90 -76 90 -199q0 -84 -52 -184.5t-120 -153.5l-41 10q156 -61 248 -217q86 -147 86 -321q0 -217 -152.5 -369t-367.5 -152q-39 0 -68.5 21.5t-29.5 56.5q0 45 72 68q137 43 159 53q104 51 160 158q45 84 45 184 q0 125 -78 242q-86 129 -205 139q-4 0 -12 -2h-10q-35 0 -60.5 21.5t-25.5 56.5q0 29 18 61q86 37 166 131q86 102 86 189q0 117 -114 116q-305 0 -306 -806q0 -195 19 -320q6 -43 6 -61q0 -33 -32 -60.5t-64 -27.5q-47 0 -80 51q-27 41 -27 399z" />
<glyph unicode="&#xe0;" horiz-adv-x="876" d="M51 193q0 96 131 180q119 76 224 76h174v49q2 215 -127 215q-162 0 -162 -152q0 -51 -58 -51q-35 0 -72.5 31.5t-37.5 66.5q0 115 82 188.5t196 73.5q385 0 385 -522q0 -264 -16 -373q-10 -63 -86 -63q-115 0 -102 115q-102 -49 -213 -50q-106 0 -203 54 q-115 63 -115 162zM221 1087q4 29 31 60t53 31q45 0 135 -82q68 -61 117 -125q2 -11 2 -19q0 -37 -33 -37q-55 0 -157 86q-35 29 -72 41q-47 14 -70 29zM262 195q0 -66 113 -66q70 0 131 39q74 43 74 106q0 41 -62 41q-256 0 -256 -120z" />
<glyph unicode="&#xe1;" horiz-adv-x="876" d="M51 193q0 96 131 180q119 76 224 76h174v49q2 215 -127 215q-162 0 -162 -152q0 -51 -58 -51q-35 0 -72.5 31.5t-37.5 66.5q0 115 82 188.5t196 73.5q385 0 385 -522q0 -264 -16 -373q-10 -63 -86 -63q-115 0 -102 115q-102 -49 -213 -50q-106 0 -203 54 q-115 63 -115 162zM262 195q0 -66 113 -66q70 0 131 39q74 43 74 106q0 41 -62 41q-256 0 -256 -120zM289 952q0 8 2 19q49 63 117 125q92 82 137 82q25 0 51.5 -31t30.5 -60l-6 -16q-23 -14 -70 -29q-37 -12 -72 -41q-102 -86 -157 -86q-33 0 -33 37z" />
<glyph unicode="&#xe2;" horiz-adv-x="876" d="M51 193q0 96 131 180q119 76 224 76h174v49q2 215 -127 215q-162 0 -162 -152q0 -51 -58 -51q-35 0 -72.5 31.5t-37.5 66.5q0 115 82 188.5t196 73.5q385 0 385 -522q0 -264 -16 -373q-10 -63 -86 -63q-115 0 -102 115q-102 -49 -213 -50q-106 0 -203 54 q-115 63 -115 162zM158 926q0 29 110.5 115.5t143.5 86.5q37 0 241 -165q6 -17 6 -31q0 -31 -41 -31q-31 0 -83 39q-63 47 -81 53t-42 15q-27 -8 -78 -37q-96 -70 -129 -70q-47 0 -47 25zM262 195q0 -66 113 -66q70 0 131 39q74 43 74 106q0 41 -62 41q-256 0 -256 -120z " />
<glyph unicode="&#xe3;" horiz-adv-x="876" d="M51 193q0 96 131 180q119 76 224 76h174v49q2 215 -127 215q-162 0 -162 -152q0 -51 -58 -51q-35 0 -72.5 31.5t-37.5 66.5q0 115 82 188.5t196 73.5q385 0 385 -522q0 -264 -16 -373q-10 -63 -86 -63q-115 0 -102 115q-102 -49 -213 -50q-106 0 -203 54 q-115 63 -115 162zM160 995q0 39 78 80q70 37 114 37q45 0 91 -27.5t63 -27.5q23 0 60.5 27.5t58.5 27.5q59 0 59 -49q0 -41 -74.5 -83t-120.5 -42q-39 0 -90 26.5t-69 26.5q-25 0 -59.5 -22.5t-51.5 -22.5q-59 0 -59 49zM262 195q0 -66 113 -66q70 0 131 39q74 43 74 106 q0 41 -62 41q-256 0 -256 -120z" />
<glyph unicode="&#xe4;" horiz-adv-x="876" d="M51 193q0 96 131 180q119 76 224 76h174v49q2 215 -127 215q-162 0 -162 -152q0 -51 -58 -51q-35 0 -72.5 31.5t-37.5 66.5q0 115 82 188.5t196 73.5q385 0 385 -522q0 -264 -16 -373q-10 -63 -86 -63q-115 0 -102 115q-102 -49 -213 -50q-106 0 -203 54 q-115 63 -115 162zM188 999q0 35 29 56.5t64 21.5t63.5 -21.5t28.5 -56.5q0 -33 -29 -54t-63 -21q-35 0 -64 21.5t-29 53.5zM262 195q0 -66 113 -66q70 0 131 39q74 43 74 106q0 41 -62 41q-256 0 -256 -120zM465 999q0 35 28.5 56.5t63.5 21.5t63.5 -21.5t28.5 -56.5 q0 -33 -28.5 -54t-63.5 -21t-63.5 21.5t-28.5 53.5z" />
<glyph unicode="&#xe5;" horiz-adv-x="876" d="M51 193q0 96 131 180q119 76 224 76h174v49q2 215 -127 215q-162 0 -162 -152q0 -51 -58 -51q-35 0 -72.5 31.5t-37.5 66.5q0 115 82 188.5t196 73.5q385 0 385 -522q0 -264 -16 -373q-10 -63 -86 -63q-115 0 -102 115q-102 -49 -213 -50q-106 0 -203 54 q-115 63 -115 162zM254 1042q0 53 53 88q47 29 105 29q57 0 104 -29q53 -35 53 -88t-50 -84.5t-107 -31.5t-105 28q-53 35 -53 88zM262 195q0 -66 113 -66q70 0 131 39q74 43 74 106q0 41 -62 41q-256 0 -256 -120zM352 1042q0 -45 60 -45q59 0 59 45t-59 45t-60 -45z" />
<glyph unicode="&#xe6;" horiz-adv-x="1378" d="M51 197q0 96 131 180q119 76 224 76h174v47q2 213 -127 213q-70 0 -119 -84q-43 -74 -43 -148q0 -51 -58 -51q-35 0 -72.5 33t-37.5 67q0 117 78 226q86 115 200 114q74 0 157 -31.5t134 -82.5q76 127 178 127q113 0 243 -100.5t130 -209.5q0 -137 -121 -235 q-113 -92 -254 -92q-25 0 -54.5 12t-57.5 25q6 -156 153 -156q82 0 161 92t110 92q35 0 61.5 -27.5t26.5 -62.5q0 -102 -138 -178q-119 -68 -229 -68q-147 0 -242 88q-147 -82 -290 -81q-106 0 -203 53q-115 63 -115 162zM262 199q0 -66 113 -66q68 0 131 39q74 44 74 107 q0 39 -62 38q-256 0 -256 -118zM780 485q0 -37 37 -60.5t78 -23.5q63 0 106 50t43 116q0 51 -29.5 97.5t-78.5 46.5q-55 0 -109 -86q-47 -78 -47 -140z" />
<glyph unicode="&#xe7;" horiz-adv-x="864" d="M51 317q0 158 84 359q100 238 234 237q74 0 181 -61t124.5 -123.5t17.5 -130.5q0 -63 -26 -145q-33 -104 -82 -105q-35 0 -66 21q-37 23 -37 57q0 6 19 47q10 20 10 121q0 158 -64 158q-100 0 -157 -179q-39 -131 -39 -262q0 -225 139 -225q55 0 125 57.5t94 112.5 q31 66 80 66q31 0 59.5 -36t28.5 -69q0 -63 -94 -151q-88 -80 -158 -103q-27 -8 -84 -24q137 -29 138 -95q0 -150 -244 -235q-76 25 -76 76q0 25 25 49q70 25 82 30q45 27 41 68q-10 18 -39 18q-12 0 -35 -4t-35 -4q-29 0 -29 25q0 31 49 80q-29 8 -86 30q-90 45 -137 144 q-43 88 -43 196z" />
<glyph unicode="&#xe8;" horiz-adv-x="821" d="M51 334q0 147 72 328q88 221 213 221q113 0 243 -100.5t130 -209.5q0 -137 -121 -235q-113 -92 -254 -92q-29 0 -92 35q6 -154 114 -154q90 0 177.5 51t111.5 51q88 0 88 -49q0 -102 -139 -160q-109 -45 -227 -45q-315 0 -316 359zM217 1087q6 29 31.5 60t52.5 31 q45 0 137 -82q66 -61 117 -125q2 -11 2 -19q0 -37 -33 -37q-55 0 -157 86q-35 29 -72 41q-47 14 -70 29zM266 489q0 -39 26.5 -63.5t67.5 -24.5q63 0 106.5 50t43.5 116q0 51 -29.5 97.5t-79.5 46.5q-66 0 -104 -80q-31 -66 -31 -142z" />
<glyph unicode="&#xe9;" horiz-adv-x="821" d="M51 334q0 147 72 328q88 221 213 221q113 0 243 -100.5t130 -209.5q0 -137 -121 -235q-113 -92 -254 -92q-29 0 -92 35q6 -154 114 -154q90 0 177.5 51t111.5 51q88 0 88 -49q0 -102 -139 -160q-109 -45 -227 -45q-315 0 -316 359zM219 952q0 8 4 19q49 63 117 125 q90 82 135 82q27 0 53.5 -31t30.5 -60l-6 -16q-23 -14 -70 -29q-37 -12 -71 -41q-102 -86 -158 -86q-35 0 -35 37zM266 489q0 -39 26.5 -63.5t67.5 -24.5q63 0 106.5 50t43.5 116q0 51 -29.5 97.5t-79.5 46.5q-66 0 -104 -80q-31 -66 -31 -142z" />
<glyph unicode="&#xea;" horiz-adv-x="821" d="M51 334q0 147 72 328q88 221 213 221q113 0 243 -100.5t130 -209.5q0 -137 -121 -235q-113 -92 -254 -92q-29 0 -92 35q6 -154 114 -154q90 0 177.5 51t111.5 51q88 0 88 -49q0 -102 -139 -160q-109 -45 -227 -45q-315 0 -316 359zM111 926q0 29 110.5 115.5t143.5 86.5 q37 0 239 -165q8 -17 8 -31q0 -31 -41 -31q-31 0 -84 39q-63 47 -86 55q-12 4 -36 13q-27 -8 -78 -37q-98 -70 -129 -70q-47 0 -47 25zM266 489q0 -39 26.5 -63.5t67.5 -24.5q63 0 106.5 50t43.5 116q0 51 -29.5 97.5t-79.5 46.5q-66 0 -104 -80q-31 -66 -31 -142z" />
<glyph unicode="&#xeb;" horiz-adv-x="821" d="M51 334q0 147 72 328q88 221 213 221q113 0 243 -100.5t130 -209.5q0 -137 -121 -235q-113 -92 -254 -92q-29 0 -92 35q6 -154 114 -154q90 0 177.5 51t111.5 51q88 0 88 -49q0 -102 -139 -160q-109 -45 -227 -45q-315 0 -316 359zM141 999q0 35 29 56.5t63 21.5 q35 0 64 -21.5t29 -56.5q0 -33 -29 -54t-64 -21t-63.5 21.5t-28.5 53.5zM266 489q0 -39 26.5 -63.5t67.5 -24.5q63 0 106.5 50t43.5 116q0 51 -29.5 97.5t-79.5 46.5q-66 0 -104 -80q-31 -66 -31 -142zM418 999q0 35 28.5 56.5t63.5 21.5t63.5 -21.5t28.5 -56.5 q0 -33 -28.5 -54t-63.5 -21t-63.5 21.5t-28.5 53.5z" />
<glyph unicode="&#xec;" horiz-adv-x="460" d="M51 1087q4 29 31 60t53 31q45 0 135 -82q68 -61 117 -125q4 -11 4 -19q0 -37 -35 -37q-55 0 -157 86q-35 29 -72 41q-47 14 -70 29zM88 477q0 203 16 340q-2 10 -2 21q0 37 58 36q51 0 102 -20q66 -23 66 -66q0 -37 -16.5 -104.5t-16.5 -103.5v-422q0 -39 22 -123 q-31 -47 -67 -47q-129 0 -141 129q-20 240 -21 360z" />
<glyph unicode="&#xed;" horiz-adv-x="460" d="M51 952q0 8 2 19q51 63 117 125q92 82 137 82q27 0 52.5 -31t31.5 -60l-8 -16q-23 -14 -65 -27.5t-76 -42.5q-102 -86 -158 -86q-33 0 -33 37zM86 477q0 203 16 340q-2 10 -2 21q0 37 58 36q51 0 102 -20q66 -23 66 -66q0 -37 -16.5 -104.5t-16.5 -103.5v-422 q0 -39 22 -123q-31 -47 -67 -47q-129 0 -142 129q-20 240 -20 360z" />
<glyph unicode="&#xee;" horiz-adv-x="546" d="M51 926q0 31 91 116.5t122 85.5q23 0 101 -71l98 -94q8 -17 8 -31q0 -31 -41 -31q-25 0 -88 37q-82 47 -92 51q-14 -6 -78 -51q-51 -37 -74 -37q-47 0 -47 25zM135 477q0 203 17 340q-4 10 -5 21q0 37 58 36q53 0 102 -20q68 -23 68 -66q0 -37 -16.5 -104.5t-16.5 -103.5 v-422q0 -39 23 -123q-31 -47 -68 -47q-131 0 -141 129q-20 240 -21 360z" />
<glyph unicode="&#xef;" horiz-adv-x="544" d="M51 999q0 35 29 56.5t63 21.5q35 0 64 -21.5t29 -56.5q0 -33 -29 -54t-64 -21t-63.5 21.5t-28.5 53.5zM125 477q0 203 16 340q-4 10 -4 21q0 37 58 36q53 0 102 -20q68 -23 68 -66q0 -37 -16.5 -104.5t-16.5 -103.5v-422q0 -39 22 -123q-31 -47 -67 -47q-131 0 -142 129 q-20 240 -20 360zM287 999q0 35 28.5 56.5t63.5 21.5t63.5 -21.5t28.5 -56.5q0 -33 -28.5 -54t-63.5 -21t-63.5 21.5t-28.5 53.5z" />
<glyph unicode="&#xf1;" horiz-adv-x="872" d="M51 813q0 35 40 63.5t75 28.5q41 0 51 -8q16 -20 33 -41l-6 -84q74 121 252 121q39 0 92 -27q195 -94 194 -551v-301q-31 -47 -75 -47q-35 0 -115 41v25q0 47 3 136t3 132q0 444 -131 444q-37 0 -84 -59q-145 -178 -145 -430q0 -35 13 -105.5t13 -105.5q0 -29 -26.5 -47 t-57.5 -18q-123 0 -123 157v434q0 16 4.5 49t4.5 50q0 25 -7.5 73t-7.5 70zM113 1026q0 39 77 80q70 37 115 37t91 -29t63 -29q23 0 60.5 29t58.5 29q59 0 59 -51q0 -39 -75 -82t-120 -43q-39 0 -90 26.5t-69 26.5q-25 0 -60 -22.5t-51 -22.5q-59 0 -59 51z" />
<glyph unicode="&#xf2;" horiz-adv-x="872" d="M51 356q0 184 92 349q106 195 277 194q53 0 133 -47q229 -138 229 -449q0 -184 -92 -315q-106 -150 -282 -149q-180 0 -273 122q-84 109 -84 295zM236 1108q6 29 31.5 59.5t51.5 30.5q45 0 138 -82q66 -61 116 -125q2 -10 2 -18q0 -37 -32 -37q-55 0 -158 86 q-35 29 -74 41q-45 14 -67 29zM246 360q0 -272 162 -272q104 0 155 113q39 86 39 207q0 313 -151 313q-109 0 -164 -133q-41 -100 -41 -228z" />
<glyph unicode="&#xf3;" horiz-adv-x="872" d="M51 356q0 184 92 349q106 195 277 194q53 0 133 -47q229 -138 229 -449q0 -184 -92 -315q-106 -150 -282 -149q-180 0 -273 122q-84 109 -84 295zM238 952q0 8 4 19q49 63 114 125q92 82 138 82q27 0 53.5 -31t30.5 -60l-7 -16q-23 -14 -69 -29q-37 -12 -72 -41 q-102 -86 -158 -86q-35 0 -34 37zM246 360q0 -272 162 -272q104 0 155 113q39 86 39 207q0 313 -151 313q-109 0 -164 -133q-41 -100 -41 -228z" />
<glyph unicode="&#xf4;" horiz-adv-x="872" d="M51 356q0 184 92 349q106 195 277 194q53 0 133 -47q229 -138 229 -449q0 -184 -92 -315q-106 -150 -282 -149q-180 0 -273 122q-84 109 -84 295zM154 926q0 29 109.5 115.5t144.5 86.5q37 0 239 -165q8 -17 8 -31q0 -31 -43 -31q-31 0 -84 39q-63 47 -84 55 q-12 4 -38 13q-27 -8 -76 -37q-98 -70 -129 -70q-47 0 -47 25zM246 360q0 -272 162 -272q104 0 155 113q39 86 39 207q0 313 -151 313q-109 0 -164 -133q-41 -100 -41 -228z" />
<glyph unicode="&#xf5;" horiz-adv-x="872" d="M51 348q0 186 84 340q102 184 273 184q182 0 284 -151q90 -134 90 -324q0 -184 -92 -315q-106 -150 -282 -150q-180 0 -273 123q-84 109 -84 293zM166 985q0 39 78 80q72 37 114 37q45 0 91.5 -27.5t62.5 -27.5q23 0 60.5 27.5t58.5 27.5q59 0 59 -49q0 -41 -74.5 -83 t-117.5 -42q-41 0 -92.5 26.5t-69.5 26.5q-25 0 -59.5 -22.5t-51.5 -22.5q-59 0 -59 49zM246 354q0 -272 162 -272q104 0 155 113q39 85 39 206q0 313 -151 314q-109 0 -164 -133q-41 -100 -41 -228z" />
<glyph unicode="&#xf6;" horiz-adv-x="872" d="M51 356q0 184 92 349q106 195 277 194q53 0 133 -47q229 -138 229 -449q0 -184 -92 -315q-106 -150 -282 -149q-180 0 -273 122q-84 109 -84 295zM180 999q0 35 29 56.5t63 21.5q33 0 63 -21.5t30 -56.5q0 -33 -30 -54t-63 -21q-35 0 -63.5 21.5t-28.5 53.5zM246 360 q0 -272 162 -272q104 0 155 113q39 86 39 207q0 313 -151 313q-109 0 -164 -133q-41 -100 -41 -228zM457 999q0 35 28.5 56.5t63.5 21.5q33 0 62.5 -21.5t29.5 -56.5q0 -33 -29.5 -54t-62.5 -21q-35 0 -63.5 21.5t-28.5 53.5z" />
<glyph unicode="&#xf8;" horiz-adv-x="874" d="M51 354q0 186 90 353q109 199 279 198q45 0 119 -41q49 117 153 117q41 0 94 -51q-41 -57 -110 -176q106 -133 106 -351q0 -186 -92 -319q-104 -150 -282 -150q-74 0 -136 21q-63 -102 -137 -102q-72 0 -72 63q20 51 74 137q-86 109 -86 301zM246 360q0 -53 6 -96 q157 299 231 455q-16 4 -32 4q-109 0 -164 -133q-41 -102 -41 -230zM350 96q27 -12 58 -12q106 0 157 115q37 86 37 209q0 84 -18 155q-145 -303 -234 -467z" />
<glyph unicode="&#xf9;" horiz-adv-x="794" d="M51 373q0 68 6 239q4 152 2 238q61 45 103 45q98 0 98 -96q0 -37 -9 -109t-9 -108v-289q0 -49 26 -103q33 -61 78 -61q88 0 131 113q29 78 29 188v246q0 47 -25 117q51 47 99 47q49 0 89 -31t40 -78q0 -63 -15.5 -191t-15.5 -194q0 -57 5 -171t5 -169q0 -47 -80 -47 q-82 0 -104 80q-78 -51 -152 -51q-59 0 -135 31.5t-106 76.5q-59 86 -60 277zM199 1087q4 29 30.5 60t53.5 31q45 0 137 -82q66 -61 115 -125q4 -11 4 -19q0 -37 -35 -37q-53 0 -158 86q-35 29 -72 41q-47 16 -69 29z" />
<glyph unicode="&#xfa;" horiz-adv-x="794" d="M51 373q0 66 4 229q6 145 4 227q61 45 103 45q98 0 98 -96q0 -33 -9 -98.5t-9 -97.5v-289q0 -49 26 -103q33 -61 78 -61q88 0 131 113q29 78 29 188v307q0 47 -25 117q51 47 99 47q49 0 89 -30.5t40 -77.5q0 -74 -15.5 -222.5t-15.5 -224.5q0 -57 5 -171t5 -169 q0 -47 -80 -47q-82 0 -104 80q-78 -51 -152 -51q-59 0 -135 31.5t-106 76.5q-59 86 -60 277zM221 952q0 8 2 19q51 63 117 125q92 82 137 82q27 0 52.5 -31t31.5 -60l-8 -16q-20 -14 -68 -29q-39 -12 -73 -41q-102 -86 -158 -86q-33 0 -33 37z" />
<glyph unicode="&#xfb;" horiz-adv-x="794" d="M51 373q0 66 4 229q6 145 4 227q61 45 103 45q98 0 98 -96q0 -33 -9 -98.5t-9 -97.5v-289q0 -49 26 -103q33 -61 78 -61q88 0 131 113q29 78 29 188v246q0 47 -25 117q51 47 99 47q49 0 89 -31t40 -78q0 -63 -15.5 -191t-15.5 -194q0 -57 5 -171t5 -169q0 -47 -80 -47 q-82 0 -104 80q-78 -51 -152 -51q-59 0 -135 31.5t-106 76.5q-59 86 -60 277zM119 946q0 29 110.5 116t143.5 87q39 0 241 -166q9 -17 9 -31q0 -31 -43 -30q-31 0 -84 30q-68 39 -82.5 44t-40.5 14q-51 -27 -103 -54q-70 -35 -104 -34q-47 0 -47 24z" />
<glyph unicode="&#xfc;" horiz-adv-x="794" d="M51 373q0 66 4 229q6 145 4 227q61 45 103 45q98 0 98 -96q0 -33 -9 -98.5t-9 -97.5v-289q0 -49 26 -103q33 -61 78 -61q88 0 131 113q29 78 29 188v246q0 47 -25 117q51 47 99 47q49 0 89 -31t40 -78q0 -63 -15.5 -191t-15.5 -194q0 -57 5 -171t5 -169q0 -47 -80 -47 q-82 0 -104 80q-78 -51 -152 -51q-59 0 -135 31.5t-106 76.5q-59 86 -60 277zM141 999q0 35 30 56.5t62 21.5q35 0 64 -21.5t29 -56.5q0 -33 -29 -54t-64 -21q-33 0 -62.5 21.5t-29.5 53.5zM418 999q0 35 29.5 56.5t62.5 21.5q35 0 63.5 -21.5t28.5 -56.5q0 -33 -28.5 -54 t-63.5 -21q-33 0 -62.5 21.5t-29.5 53.5z" />
<glyph unicode="&#xff;" horiz-adv-x="878" d="M51 -291q0 29 23.5 48.5t52.5 19.5q18 0 88 -55.5t160 -55.5q115 0 153 84q29 57 29 187q0 47 -2 75q-68 -43 -152 -43q-154 0 -237 111q-76 100 -76 258q0 16 21 518q61 27 98 27q41 0 121 -49q-49 -125 -49 -494q0 -238 118 -238q88 0 136 148q35 109 34 223v250 q0 -2 -6 70q84 41 125 41q44 0 103 -39q-18 -102 -35 -203q-20 -121 -21 -205v-561q0 -152 -87 -232.5t-238 -80.5q-98 0 -217 51q-141 61 -142 145zM190 1026q0 37 32 61.5t71 24.5t70.5 -24.5t31.5 -61.5q0 -35 -31.5 -59.5t-70.5 -24.5t-71 24.5t-32 59.5zM498 1026 q0 37 31.5 61.5t70.5 24.5t70.5 -24.5t31.5 -61.5q0 -35 -31.5 -59.5t-70.5 -24.5t-70.5 24.5t-31.5 59.5z" />
<glyph unicode="&#x152;" horiz-adv-x="1921" d="M51 594q0 303 146 534q168 272 454 273q166 0 295 -109q14 8 39 13q47 6 277 61q170 41 278 41q135 0 244 -123q-59 -57 -107 -57q-12 0 -37.5 3t-37.5 3q-88 0 -265 -33q-188 -35 -254 -70q-18 -227 -26 -438q57 2 178 29t184 27q61 0 140 -37l20 -76q0 -16 -36 -42 t-62 -38q-33 23 -68 23q-176 0 -360 -54q0 -27 2 -94q4 -59 4 -94q0 -207 115 -207q70 0 197.5 48t197.5 48q156 0 217 -106q-27 -61 -70 -62q-8 0 -24.5 3t-24.5 3q-82 0 -234.5 -53t-234.5 -53q-168 0 -252 135q-150 -129 -354 -129q-76 0 -170 29q-207 66 -295 229 q-76 139 -76 373zM240 621q0 -207 69 -336q90 -166 279 -166q180 0 237 82q43 66 43 256q1 425 21 630q-106 143 -223 144q-117 0 -232 -107q-195 -176 -194 -503z" />
<glyph unicode="&#x153;" horiz-adv-x="1394" d="M51 356q0 184 92 349q106 195 277 194q164 0 270 -156q82 137 211 138q139 0 244 -84q113 -88 112 -224q0 -139 -116.5 -238t-257.5 -99q-6 0 -107 18q23 -129 131 -129q70 0 131 49q20 16 84 88q43 47 72 47q37 0 63.5 -26.5t26.5 -63.5q0 -102 -137 -180 q-119 -66 -232 -66q-158 0 -239 97q-102 -131 -268 -131q-180 0 -273 122q-84 109 -84 295zM246 360q0 -272 162 -272q104 0 155 113q39 86 39 207q0 313 -151 313q-109 0 -164 -133q-41 -100 -41 -228zM737 250v4q-2 -2 0 -4zM782 506q0 -47 40 -77t87 -30q66 0 115 56.5 t49 122.5q0 55 -39 94t-94 39q-74 0 -116 -62.5t-42 -142.5z" />
<glyph unicode="&#x178;" horiz-adv-x="1148" d="M51 1284q0 121 107 121q61 0 98 -55q33 -47 33 -111q0 -12 -9.5 -33.5t-9.5 -34.5q0 -86 80 -272q86 -199 152 -225q29 39 116 237q98 217 154 312q90 156 154 155q47 0 82 -27.5t41 -70.5q-23 -39 -79.5 -104.5t-76.5 -102.5q-133 -229 -260 -545q-156 -395 -139 -563 q-63 -47 -113 -47q-63 0 -102 49q-23 31 -50 109q18 16 56 49q27 29 77 172q35 96 70 195q-123 100 -217 303q-164 350 -164 489zM276 1532q0 37 32 61.5t71 24.5t70.5 -24.5t31.5 -61.5q0 -35 -31.5 -59.5t-70.5 -24.5t-71 24.5t-32 59.5zM584 1532q0 37 31.5 61.5 t70.5 24.5t70.5 -24.5t31.5 -61.5q0 -35 -31.5 -59.5t-70.5 -24.5t-70.5 24.5t-31.5 59.5z" />
<glyph unicode="&#x2c6;" horiz-adv-x="690" d="M51 1487q0 33 123 130t160 97q41 0 266 -186q10 -17 10 -33q0 -37 -47 -37q-35 0 -94 45q-70 51 -94 62q-14 4 -41 14q-31 -10 -86 -41q-109 -80 -144 -80q-53 0 -53 29z" />
<glyph unicode="&#x2dc;" horiz-adv-x="714" d="M51 1501q0 41 88 82q78 35 125 35q49 0 101.5 -27.5t68.5 -27.5q27 0 69 27.5t64 27.5q66 0 66 -51q0 -39 -88 -84q-80 -39 -127 -39q-43 0 -100.5 26.5t-77.5 26.5q-27 0 -67 -22.5t-56 -22.5q-66 0 -66 49z" />
<glyph unicode="&#x2000;" horiz-adv-x="870" />
<glyph unicode="&#x2001;" horiz-adv-x="1741" />
<glyph unicode="&#x2002;" horiz-adv-x="870" />
<glyph unicode="&#x2003;" horiz-adv-x="1741" />
<glyph unicode="&#x2004;" horiz-adv-x="580" />
<glyph unicode="&#x2005;" horiz-adv-x="435" />
<glyph unicode="&#x2006;" horiz-adv-x="290" />
<glyph unicode="&#x2007;" horiz-adv-x="290" />
<glyph unicode="&#x2008;" horiz-adv-x="217" />
<glyph unicode="&#x2009;" horiz-adv-x="348" />
<glyph unicode="&#x200a;" horiz-adv-x="96" />
<glyph unicode="&#x2010;" horiz-adv-x="681" d="M51 580q0 59 53 59q16 0 48 -8t49 -8q43 0 130 4t130 4q127 -1 141 -58q-12 -4 -12 -14q0 -6 5 -16.5t5 -16.5q0 -23 -70 -22q-14 0 -38.5 5t-38.5 5q-35 0 -106 -2t-107 -2q-188 0 -189 70z" />
<glyph unicode="&#x2011;" horiz-adv-x="681" d="M51 580q0 59 53 59q16 0 48 -8t49 -8q43 0 130 4t130 4q127 -1 141 -58q-12 -4 -12 -14q0 -6 5 -16.5t5 -16.5q0 -23 -70 -22q-14 0 -38.5 5t-38.5 5q-35 0 -106 -2t-107 -2q-188 0 -189 70z" />
<glyph unicode="&#x2012;" horiz-adv-x="681" d="M51 580q0 59 53 59q16 0 48 -8t49 -8q43 0 130 4t130 4q127 -1 141 -58q-12 -4 -12 -14q0 -6 5 -16.5t5 -16.5q0 -23 -70 -22q-14 0 -38.5 5t-38.5 5q-35 0 -106 -2t-107 -2q-188 0 -189 70z" />
<glyph unicode="&#x2013;" horiz-adv-x="948" d="M51 563v62q631 20 637 20q49 0 100 -18q68 -23 68 -64q0 12 -8 -53q-53 -12 -68 -12q-12 0 -59 16q-39 12 -291 12q-115 0 -250 -32q-27 -6 -37 -7q-27 0 -59.5 25t-32.5 51z" />
<glyph unicode="&#x2014;" horiz-adv-x="1804" d="M51 528v66l1458 51q53 0 103 -18q63 -25 63 -70q0 -10 -10 -57q-47 -12 -66 -13q-23 0 -64.5 11.5t-66.5 11.5q-160 0 -743 -12h-223q-131 -2 -219 -17q-18 -2 -70 -20q-43 -14 -70 -15q-29 0 -60.5 28t-31.5 54z" />
<glyph unicode="&#x2018;" horiz-adv-x="380" d="M31 1368q0 25 40 48.5t62 23.5q29 0 109 -160q45 -101 92 -199q-2 -25 -26.5 -38t-45.5 -13q-37 0 -61 49q-27 63 -56 127q-39 86 -67 115l-24 19q-23 20 -23 28z" />
<glyph unicode="&#x2019;" horiz-adv-x="380" d="M31 1081q45 98 92 199q78 160 106 160q25 0 65 -23.5t40 -48.5q0 -8 -25 -29l-24 -18q-27 -29 -66 -115q-29 -63 -55 -127q-25 -49 -62 -49q-23 0 -43 12q-27 14 -28 39z" />
<glyph unicode="&#x201a;" horiz-adv-x="505" d="M51 -215l6 51q145 113 185 309q43 16 61 17q37 0 78 -33t51 -68q-37 -66 -113 -174q-96 -139 -122 -139q-39 0 -146 37z" />
<glyph unicode="&#x201c;" horiz-adv-x="458" d="M10 946q0 133 17 275q25 205 69 204q29 0 58.5 -24t29.5 -51q0 -10 -16 -47q-18 -43 -21 -52q-20 -80 -20 -190q0 -14 8 -42t8 -42q0 -10 -20 -64h-53q-27 0 -60 33zM217 1020q0 72 23 205q29 164 61 164q96 -1 96 -60q0 -10 -14 -29l-10 -14q-41 -49 -41 -248 q0 -80 22 -94q-12 -49 -65 -49q-72 0 -72 125z" />
<glyph unicode="&#x201d;" horiz-adv-x="464" d="M51 1354q0 41 62 41q29 0 48 -15.5t34 -119.5q12 -83 12 -134q0 -123 -31 -219h-90q-29 23 -29 47q0 12 11.5 32t13.5 28q8 39 8 108q0 164 -24 201l-7 8q-8 12 -8 23zM258 1341q0 59 53 60q39 0 72 -25q31 -109 31 -291v-73q0 -74 -39 -123l-13 -2q-29 0 -59.5 18.5 t-30.5 46.5q0 14 7.5 39t9.5 35q4 35 4 94v70q0 31 -17.5 81t-17.5 70z" />
<glyph unicode="&#x201e;" horiz-adv-x="782" d="M51 -215l6 53q145 115 185 316q43 16 61 16q39 0 79 -33.5t50 -70.5q-37 -66 -113 -177q-96 -141 -122 -141q-39 0 -146 37zM317 -215l7 53q135 106 184 359q41 16 61 16q37 0 77 -32.5t50 -69.5q-33 -72 -110 -201q-96 -162 -123 -162q-39 0 -146 37z" />
<glyph unicode="&#x2022;" horiz-adv-x="583" d="M102 631q0 61 53.5 107t112.5 46q63 0 121 -34q68 -42 68 -105q0 -70 -43 -122t-111 -52q-201 0 -201 160z" />
<glyph unicode="&#x2026;" horiz-adv-x="1333" d="M51 57q0 72 113 72q51 0 96 -18q64 -23 64 -64q0 -31 -58 -53q-47 -16 -86 -17q-43 0 -82 19q-47 25 -47 61zM502 57q0 72 112 72q51 0 97 -18q63 -23 63 -64q0 -31 -57 -53q-47 -16 -86 -17q-43 0 -82 19q-47 25 -47 61zM952 57q0 72 113 72q51 0 96 -18q64 -23 64 -64 q0 -31 -58 -53q-47 -16 -86 -17q-43 0 -82 19q-47 25 -47 61z" />
<glyph unicode="&#x202f;" horiz-adv-x="348" />
<glyph unicode="&#x2039;" horiz-adv-x="466" d="M31 696q0 23 24 37l226 330q16 8 30 8q29 0 46.5 -22.5t17.5 -49.5q0 -25 -15 -41l-194 -253q53 -66 108 -130q94 -123 95 -198q0 -49 -41 -49q-33 0 -54 24q-41 45 -135 176q-109 147 -108 168z" />
<glyph unicode="&#x203a;" horiz-adv-x="466" d="M72 399q0 25 14 43l197 252q-55 66 -111 129q-94 123 -94 199q0 49 41 49q33 0 55 -24q39 -45 133 -177q109 -148 109 -168q0 -23 -25 -36l-225 -330q-16 -8 -31 -8q-29 0 -46 22.5t-17 48.5z" />
<glyph unicode="&#x205f;" horiz-adv-x="435" />
<glyph unicode="&#x2122;" horiz-adv-x="882" d="M20 1272q0 23 101 39q80 14 127 14q100 0 100 -55q0 -43 -43 -43q-31 10 -57 10h-23q-18 -131 -18 -217q0 -66 16 -90v-35q-33 -10 -37 -10q-74 0 -73 100v51q0 37 6 86l8 84q0 14 -5 17.5t-18 3.5q-18 -2 -20 -2q-61 0 -64 47zM408 1016q0 41 5 124t5 124l-5 8t-5 16 q0 49 79 49q20 0 52 -24q8 -43 14 -80q2 -25 31 -121q29 -102 37 -102q16 0 25 37.5t18 76.5q14 74 34 170q14 47 72 47q55 0 55 -47q-25 -47 -24 -133q0 -29 3 -81t3 -74q0 -4 2 -15.5t2 -19.5l8 -17q8 -16 8 -53q-10 -23 -57 -22q-23 0 -31 139l-8 176l-2 8 q-14 -80 -29 -160q-29 -135 -88 -129q-33 2 -73 136q-20 80 -43 161q-10 -55 -11 -102q0 -53 21 -147l14 -15q2 -53 -53 -53q-29 0 -47 49q-12 37 -12 74z" />
<glyph unicode="&#x25fc;" horiz-adv-x="870" d="M0 0v870h870v-870h-870z" />
</font>
</defs>
</svg>
